<svg width="221" height="50" viewBox="0 0 221 50" fill="none" xmlns="http://www.w3.org/2000/svg">
<g clip-path="url(#clip0_6_872)">
<path d="M42.0918 0H7.90816C3.54061 0 0 3.54061 0 7.90816V42.0918C0 46.4594 3.54061 50 7.90816 50H42.0918C46.4594 50 50 46.4594 50 42.0918V7.90816C50 3.54061 46.4594 0 42.0918 0Z" fill="url(#paint0_linear_6_872)"/>
<path d="M13.6667 18.625V31.375L25 37.75V25M13.6667 18.625L25 12.25L36.3334 18.625M13.6667 18.625L25 25M36.3334 18.625V25M36.3334 18.625L25 25M39.1667 33.5H29.25M29.25 33.5L33.5 29.25M29.25 33.5L33.5 37.75" stroke="#EDF1FF" stroke-width="2" stroke-linecap="round" stroke-linejoin="round"/>
<path d="M67.0359 16.0455V33.5H63.8739V16.0455H67.0359ZM70.3235 33.5V20.4091H73.2724V22.6335H73.4258C73.6985 21.8835 74.1502 21.2983 74.7809 20.8778C75.4116 20.4517 76.1644 20.2386 77.0394 20.2386C77.9258 20.2386 78.6729 20.4545 79.2809 20.8864C79.8945 21.3125 80.3263 21.8949 80.5763 22.6335H80.7127C81.0025 21.9062 81.4911 21.3267 82.1786 20.8949C82.8718 20.4574 83.6928 20.2386 84.6417 20.2386C85.8462 20.2386 86.8292 20.6193 87.5906 21.3807C88.3519 22.142 88.7326 23.2528 88.7326 24.7131V33.5H85.6389V25.1903C85.6389 24.3778 85.4229 23.7841 84.9911 23.4091C84.5593 23.0284 84.0309 22.8381 83.4059 22.8381C82.6616 22.8381 82.0792 23.071 81.6587 23.5369C81.244 23.9972 81.0366 24.5966 81.0366 25.3352V33.5H78.011V25.0625C78.011 24.3864 77.8065 23.8466 77.3974 23.4432C76.994 23.0398 76.4656 22.8381 75.8121 22.8381C75.369 22.8381 74.9656 22.9517 74.6019 23.179C74.2383 23.4006 73.9485 23.7159 73.7326 24.125C73.5167 24.5284 73.4087 25 73.4087 25.5398V33.5H70.3235ZM91.8626 38.4091V20.4091H94.8967V22.5739H95.0756C95.2347 22.2557 95.4592 21.9176 95.7489 21.5597C96.0387 21.196 96.4308 20.8864 96.9251 20.6307C97.4194 20.3693 98.0501 20.2386 98.8171 20.2386C99.8285 20.2386 100.74 20.4972 101.553 21.0142C102.371 21.5256 103.019 22.2841 103.496 23.2898C103.979 24.2898 104.221 25.517 104.221 26.9716C104.221 28.4091 103.985 29.6307 103.513 30.6364C103.042 31.642 102.4 32.4091 101.587 32.9375C100.775 33.4659 99.854 33.7301 98.8256 33.7301C98.0756 33.7301 97.4535 33.6051 96.9592 33.3551C96.4648 33.1051 96.0671 32.804 95.766 32.4517C95.4705 32.0937 95.2404 31.7557 95.0756 31.4375H94.9478V38.4091H91.8626ZM94.8881 26.9545C94.8881 27.8011 95.0075 28.5426 95.2461 29.179C95.4904 29.8153 95.8398 30.3125 96.2944 30.6705C96.7546 31.0227 97.3114 31.1989 97.9648 31.1989C98.6467 31.1989 99.2177 31.017 99.6779 30.6534C100.138 30.2841 100.485 29.7812 100.718 29.1449C100.956 28.5028 101.076 27.7727 101.076 26.9545C101.076 26.142 100.959 25.4205 100.726 24.7898C100.493 24.1591 100.147 23.6648 99.6864 23.3068C99.2262 22.9489 98.6523 22.7699 97.9648 22.7699C97.3058 22.7699 96.7461 22.9432 96.2859 23.2898C95.8256 23.6364 95.4762 24.1222 95.2376 24.7472C95.0046 25.3722 94.8881 26.108 94.8881 26.9545ZM112.573 33.7557C111.294 33.7557 110.186 33.4744 109.249 32.9119C108.311 32.3494 107.584 31.5625 107.067 30.5511C106.556 29.5398 106.3 28.358 106.3 27.0057C106.3 25.6534 106.556 24.4687 107.067 23.4517C107.584 22.4347 108.311 21.6449 109.249 21.0824C110.186 20.5199 111.294 20.2386 112.573 20.2386C113.851 20.2386 114.959 20.5199 115.897 21.0824C116.834 21.6449 117.559 22.4347 118.07 23.4517C118.587 24.4687 118.846 25.6534 118.846 27.0057C118.846 28.358 118.587 29.5398 118.07 30.5511C117.559 31.5625 116.834 32.3494 115.897 32.9119C114.959 33.4744 113.851 33.7557 112.573 33.7557ZM112.59 31.2841C113.283 31.2841 113.863 31.0937 114.328 30.7131C114.794 30.3267 115.141 29.8097 115.368 29.1619C115.601 28.5142 115.718 27.7926 115.718 26.9972C115.718 26.196 115.601 25.4716 115.368 24.8239C115.141 24.1705 114.794 23.6506 114.328 23.2642C113.863 22.8778 113.283 22.6847 112.59 22.6847C111.88 22.6847 111.289 22.8778 110.817 23.2642C110.351 23.6506 110.002 24.1705 109.769 24.8239C109.542 25.4716 109.428 26.196 109.428 26.9972C109.428 27.7926 109.542 28.5142 109.769 29.1619C110.002 29.8097 110.351 30.3267 110.817 30.7131C111.289 31.0937 111.88 31.2841 112.59 31.2841ZM121.464 33.5V20.4091H124.456V22.5909H124.592C124.831 21.8352 125.24 21.2528 125.819 20.8438C126.404 20.429 127.072 20.2216 127.822 20.2216C127.993 20.2216 128.183 20.2301 128.393 20.2472C128.609 20.2585 128.788 20.2784 128.93 20.3068V23.1449C128.799 23.0994 128.592 23.0597 128.308 23.0256C128.029 22.9858 127.76 22.9659 127.498 22.9659C126.936 22.9659 126.43 23.0881 125.981 23.3324C125.538 23.571 125.189 23.9034 124.933 24.3295C124.677 24.7557 124.549 25.2472 124.549 25.804V33.5H121.464ZM138.22 20.4091V22.7955H130.694V20.4091H138.22ZM132.552 17.2727H135.637V29.5625C135.637 29.9773 135.7 30.2955 135.825 30.517C135.956 30.733 136.126 30.8807 136.336 30.9602C136.547 31.0398 136.779 31.0795 137.035 31.0795C137.228 31.0795 137.404 31.0653 137.564 31.0369C137.728 31.0085 137.853 30.983 137.939 30.9602L138.458 33.3722C138.294 33.429 138.058 33.4915 137.751 33.5597C137.45 33.6278 137.081 33.6676 136.643 33.679C135.87 33.7017 135.174 33.5852 134.555 33.3295C133.936 33.0682 133.444 32.6648 133.081 32.1193C132.723 31.5739 132.547 30.892 132.552 30.0739V17.2727ZM144.469 33.5L139.543 16.0455H142.944L146.088 28.8722H146.25L149.608 16.0455H152.702L156.069 28.8807H156.222L159.367 16.0455H162.767L157.841 33.5H154.722L151.228 21.2528H151.091L147.588 33.5H144.469ZM164.824 33.5V20.4091H167.909V33.5H164.824ZM166.375 18.5511C165.886 18.5511 165.466 18.3892 165.113 18.0653C164.761 17.7358 164.585 17.3409 164.585 16.8807C164.585 16.4148 164.761 16.0199 165.113 15.696C165.466 15.3665 165.886 15.2017 166.375 15.2017C166.869 15.2017 167.289 15.3665 167.636 15.696C167.988 16.0199 168.164 16.4148 168.164 16.8807C168.164 17.3409 167.988 17.7358 167.636 18.0653C167.289 18.3892 166.869 18.5511 166.375 18.5511ZM170.911 33.5V31.5398L177.661 23.0767V22.9659H171.132V20.4091H181.436V22.5142L175.01 30.8324V30.9432H181.658V33.5H170.911ZM188.325 33.7642C187.495 33.7642 186.748 33.6165 186.083 33.321C185.424 33.0199 184.902 32.5767 184.515 31.9915C184.135 31.4062 183.944 30.6847 183.944 29.8267C183.944 29.0881 184.081 28.4773 184.353 27.9943C184.626 27.5114 184.998 27.125 185.47 26.8352C185.941 26.5455 186.473 26.3267 187.064 26.179C187.66 26.0256 188.277 25.9148 188.913 25.8466C189.68 25.767 190.302 25.696 190.779 25.6335C191.257 25.5653 191.603 25.4631 191.819 25.3267C192.041 25.1847 192.152 24.9659 192.152 24.6705V24.6193C192.152 23.9773 191.961 23.4801 191.581 23.1278C191.2 22.7756 190.652 22.5994 189.936 22.5994C189.18 22.5994 188.581 22.7642 188.137 23.0938C187.7 23.4233 187.404 23.8125 187.251 24.2614L184.37 23.8523C184.598 23.0568 184.973 22.392 185.495 21.858C186.018 21.3182 186.657 20.9148 187.413 20.6477C188.169 20.375 189.004 20.2386 189.919 20.2386C190.549 20.2386 191.177 20.3125 191.802 20.4602C192.427 20.608 192.998 20.8523 193.515 21.1932C194.032 21.5284 194.447 21.9858 194.76 22.5653C195.078 23.1449 195.237 23.8693 195.237 24.7386V33.5H192.271V31.7017H192.169C191.981 32.0653 191.717 32.4062 191.376 32.7244C191.041 33.0369 190.618 33.2898 190.106 33.483C189.6 33.6705 189.007 33.7642 188.325 33.7642ZM189.126 31.4972C189.745 31.4972 190.282 31.375 190.737 31.1307C191.191 30.8807 191.541 30.5511 191.785 30.142C192.035 29.733 192.16 29.2869 192.16 28.804V27.2614C192.064 27.3409 191.899 27.4148 191.666 27.483C191.439 27.5511 191.183 27.6108 190.899 27.6619C190.615 27.7131 190.333 27.7585 190.055 27.7983C189.777 27.8381 189.535 27.8722 189.331 27.9006C188.87 27.9631 188.458 28.0653 188.095 28.2074C187.731 28.3494 187.444 28.5483 187.234 28.804C187.024 29.054 186.919 29.3778 186.919 29.7756C186.919 30.3438 187.126 30.7727 187.541 31.0625C187.956 31.3523 188.484 31.4972 189.126 31.4972ZM198.339 33.5V20.4091H201.331V22.5909H201.467C201.706 21.8352 202.115 21.2528 202.694 20.8438C203.279 20.429 203.947 20.2216 204.697 20.2216C204.868 20.2216 205.058 20.2301 205.268 20.2472C205.484 20.2585 205.663 20.2784 205.805 20.3068V23.1449C205.674 23.0994 205.467 23.0597 205.183 23.0256C204.904 22.9858 204.635 22.9659 204.373 22.9659C203.811 22.9659 203.305 23.0881 202.856 23.3324C202.413 23.571 202.064 23.9034 201.808 24.3295C201.552 24.7557 201.424 25.2472 201.424 25.804V33.5H198.339ZM212.174 33.7301C211.145 33.7301 210.225 33.4659 209.412 32.9375C208.6 32.4091 207.958 31.642 207.486 30.6364C207.015 29.6307 206.779 28.4091 206.779 26.9716C206.779 25.517 207.017 24.2898 207.495 23.2898C207.978 22.2841 208.628 21.5256 209.446 21.0142C210.265 20.4972 211.176 20.2386 212.182 20.2386C212.949 20.2386 213.58 20.3693 214.074 20.6307C214.569 20.8864 214.961 21.196 215.25 21.5597C215.54 21.9176 215.765 22.2557 215.924 22.5739H216.051V16.0455H219.145V33.5H216.111V31.4375H215.924C215.765 31.7557 215.534 32.0937 215.233 32.4517C214.932 32.804 214.534 33.1051 214.04 33.3551C213.546 33.6051 212.924 33.7301 212.174 33.7301ZM213.034 31.1989C213.688 31.1989 214.245 31.0227 214.705 30.6705C215.165 30.3125 215.515 29.8153 215.753 29.179C215.992 28.5426 216.111 27.8011 216.111 26.9545C216.111 26.108 215.992 25.3722 215.753 24.7472C215.52 24.1222 215.174 23.6364 214.713 23.2898C214.259 22.9432 213.699 22.7699 213.034 22.7699C212.347 22.7699 211.773 22.9489 211.313 23.3068C210.853 23.6648 210.506 24.1591 210.273 24.7898C210.04 25.4205 209.924 26.142 209.924 26.9545C209.924 27.7727 210.04 28.5028 210.273 29.1449C210.512 29.7812 210.861 30.2841 211.321 30.6534C211.787 31.017 212.358 31.1989 213.034 31.1989Z" fill="#202F6B"/>
</g>
<defs>
<linearGradient id="paint0_linear_6_872" x1="-6.12245" y1="45.9184" x2="60.7143" y2="-8.53667e-07" gradientUnits="userSpaceOnUse">
<stop stop-color="#4C70FF"/>
<stop offset="0.888445" stop-color="#BB4CFF" stop-opacity="0.67"/>
</linearGradient>
<clipPath id="clip0_6_872">
<rect width="221" height="50" fill="white"/>
</clipPath>
</defs>
</svg>
