<?xml version="1.0" encoding="UTF-8"?>
<svg id="Illustration" xmlns="http://www.w3.org/2000/svg" xmlns:xlink="http://www.w3.org/1999/xlink" viewBox="0 0 2475 1650">
  <defs>
    <style>
      .cls-1 {
        fill: url(#linear-gradient);
      }

      .cls-2, .cls-3, .cls-4 {
        fill: #fff;
      }

      .cls-5 {
        fill: #91b3fa;
      }

      .cls-6 {
        fill: #7d97f4;
      }

      .cls-7 {
        fill: #bdd0fb;
      }

      .cls-8 {
        fill: url(#linear-gradient-8);
      }

      .cls-9 {
        fill: url(#linear-gradient-9);
      }

      .cls-10 {
        fill: url(#linear-gradient-3);
      }

      .cls-11 {
        fill: url(#linear-gradient-4);
      }

      .cls-12 {
        fill: url(#linear-gradient-2);
      }

      .cls-13 {
        fill: url(#linear-gradient-6);
      }

      .cls-14 {
        fill: url(#linear-gradient-7);
      }

      .cls-15 {
        fill: url(#linear-gradient-5);
      }

      .cls-16 {
        opacity: .41;
      }

      .cls-17 {
        opacity: .64;
      }

      .cls-18 {
        opacity: .81;
      }

      .cls-19 {
        fill: url(#linear-gradient-53);
      }

      .cls-20 {
        fill: url(#linear-gradient-51);
      }

      .cls-21 {
        fill: url(#linear-gradient-52);
      }

      .cls-22 {
        fill: url(#linear-gradient-50);
      }

      .cls-23 {
        fill: url(#linear-gradient-41);
      }

      .cls-24 {
        fill: url(#linear-gradient-40);
      }

      .cls-25 {
        fill: url(#linear-gradient-43);
      }

      .cls-26 {
        fill: url(#linear-gradient-42);
      }

      .cls-27 {
        fill: url(#linear-gradient-45);
      }

      .cls-28 {
        fill: url(#linear-gradient-46);
      }

      .cls-29 {
        fill: url(#linear-gradient-44);
      }

      .cls-30 {
        fill: url(#linear-gradient-49);
      }

      .cls-31 {
        fill: url(#linear-gradient-47);
      }

      .cls-32 {
        fill: url(#linear-gradient-48);
      }

      .cls-33 {
        fill: url(#linear-gradient-14);
      }

      .cls-34 {
        fill: url(#linear-gradient-18);
      }

      .cls-35 {
        fill: url(#linear-gradient-22);
      }

      .cls-36 {
        fill: url(#linear-gradient-20);
      }

      .cls-37 {
        fill: url(#linear-gradient-21);
      }

      .cls-38 {
        fill: url(#linear-gradient-23);
      }

      .cls-39 {
        fill: url(#linear-gradient-15);
      }

      .cls-40 {
        fill: url(#linear-gradient-19);
      }

      .cls-41 {
        fill: url(#linear-gradient-16);
      }

      .cls-42 {
        fill: url(#linear-gradient-17);
      }

      .cls-43 {
        fill: url(#linear-gradient-13);
      }

      .cls-44 {
        fill: url(#linear-gradient-12);
      }

      .cls-45 {
        fill: url(#linear-gradient-10);
      }

      .cls-46 {
        fill: url(#linear-gradient-11);
      }

      .cls-47 {
        fill: url(#linear-gradient-27);
      }

      .cls-48 {
        fill: url(#linear-gradient-24);
      }

      .cls-49 {
        fill: url(#linear-gradient-26);
      }

      .cls-50 {
        fill: url(#linear-gradient-38);
      }

      .cls-51 {
        fill: url(#linear-gradient-35);
      }

      .cls-52 {
        fill: url(#linear-gradient-37);
      }

      .cls-53 {
        fill: url(#linear-gradient-34);
      }

      .cls-54 {
        fill: url(#linear-gradient-39);
      }

      .cls-55 {
        fill: url(#linear-gradient-36);
      }

      .cls-56 {
        fill: url(#linear-gradient-25);
      }

      .cls-57 {
        fill: url(#linear-gradient-28);
      }

      .cls-58 {
        fill: url(#linear-gradient-29);
      }

      .cls-59 {
        fill: url(#linear-gradient-33);
      }

      .cls-60 {
        fill: url(#linear-gradient-30);
      }

      .cls-61 {
        fill: url(#linear-gradient-32);
      }

      .cls-62 {
        fill: url(#linear-gradient-31);
      }

      .cls-3 {
        opacity: .56;
      }

      .cls-4 {
        opacity: .74;
      }
    </style>
    <linearGradient id="linear-gradient" x1="312.22" y1="596.56" x2="391.34" y2="596.56" gradientUnits="userSpaceOnUse">
      <stop offset="0" stop-color="#dae3fe"/>
      <stop offset="1" stop-color="#e9effd"/>
    </linearGradient>
    <linearGradient id="linear-gradient-2" x1="259.04" y1="596" x2="445.69" y2="596" xlink:href="#linear-gradient"/>
    <linearGradient id="linear-gradient-3" x1="520" y1="377.78" x2="622" y2="377.78" xlink:href="#linear-gradient"/>
    <linearGradient id="linear-gradient-4" x1="257.12" y1="849.85" x2="2126.29" y2="849.85" xlink:href="#linear-gradient"/>
    <linearGradient id="linear-gradient-5" x1="1716.93" y1="800.76" x2="2121.51" y2="800.76" xlink:href="#linear-gradient"/>
    <linearGradient id="linear-gradient-6" x1="2043.39" y1="632.53" x2="2057.24" y2="632.53" xlink:href="#linear-gradient"/>
    <linearGradient id="linear-gradient-7" x1="2054.84" y1="677.56" x2="2143.48" y2="677.56" xlink:href="#linear-gradient"/>
    <linearGradient id="linear-gradient-8" x1="1931.28" y1="746.57" x2="1944.29" y2="746.57" xlink:href="#linear-gradient"/>
    <linearGradient id="linear-gradient-9" x1="1940.37" y1="807.27" x2="2056.2" y2="807.27" xlink:href="#linear-gradient"/>
    <linearGradient id="linear-gradient-10" x1="1466.59" y1="1519.68" x2="1874.59" y2="2259.68" gradientUnits="userSpaceOnUse">
      <stop offset="0" stop-color="#4042e2"/>
      <stop offset="1" stop-color="#4f52ff"/>
    </linearGradient>
    <linearGradient id="linear-gradient-11" x1="2194.15" y1="1551.17" x2="1024.03" y2="852.1" xlink:href="#linear-gradient-10"/>
    <linearGradient id="linear-gradient-12" x1="387.67" y1="1103.45" x2="445.63" y2="1103.45" xlink:href="#linear-gradient"/>
    <linearGradient id="linear-gradient-13" x1="339.27" y1="934.76" x2="410.78" y2="934.76" xlink:href="#linear-gradient"/>
    <linearGradient id="linear-gradient-14" x1="407.94" y1="926.97" x2="446.59" y2="926.97" xlink:href="#linear-gradient"/>
    <linearGradient id="linear-gradient-15" x1="353.11" y1="1062.17" x2="432.6" y2="1062.17" xlink:href="#linear-gradient"/>
    <linearGradient id="linear-gradient-16" x1="429.35" y1="1054.39" x2="485.97" y2="1054.39" xlink:href="#linear-gradient"/>
    <linearGradient id="linear-gradient-17" x1="442.92" y1="1221.5" x2="507.92" y2="1221.5" xlink:href="#linear-gradient"/>
    <linearGradient id="linear-gradient-18" x1="369.43" y1="1228.87" x2="445.7" y2="1228.87" xlink:href="#linear-gradient"/>
    <linearGradient id="linear-gradient-19" x1="1290.98" y1="139.28" x2="1021.98" y2="403.28" gradientUnits="userSpaceOnUse">
      <stop offset="0" stop-color="#09005d"/>
      <stop offset="1" stop-color="#1a0f91"/>
    </linearGradient>
    <linearGradient id="linear-gradient-20" x1="1029.8" y1="321.9" x2="840.8" y2="455.9" xlink:href="#linear-gradient-19"/>
    <linearGradient id="linear-gradient-21" x1="1197.36" y1="82.8" x2="1090.36" y2="453.79" gradientUnits="userSpaceOnUse">
      <stop offset="0" stop-color="#fe7062"/>
      <stop offset="1" stop-color="#ff928e"/>
    </linearGradient>
    <linearGradient id="linear-gradient-22" x1="909.29" y1="1256.2" x2="875.29" y2="1386.2" xlink:href="#linear-gradient-19"/>
    <linearGradient id="linear-gradient-23" x1="823.41" y1="1493.6" x2="840.07" y2="1493.6" gradientUnits="userSpaceOnUse">
      <stop offset="0" stop-color="#ff928e"/>
      <stop offset="1" stop-color="#feb3b1"/>
    </linearGradient>
    <linearGradient id="linear-gradient-24" x1="1001.51" y1="1280.32" x2="967.51" y2="1410.32" xlink:href="#linear-gradient-19"/>
    <linearGradient id="linear-gradient-25" x1="907.55" y1="1486.2" x2="924.11" y2="1486.2" xlink:href="#linear-gradient-23"/>
    <linearGradient id="linear-gradient-26" x1="891.5" y1="1052.91" x2="855.81" y2="1541.83" xlink:href="#linear-gradient-19"/>
    <linearGradient id="linear-gradient-27" x1="920.01" y1="1160.89" x2="725.01" y2="1431.89" gradientUnits="userSpaceOnUse">
      <stop offset="0" stop-color="#020039"/>
      <stop offset="1" stop-color="#090056"/>
    </linearGradient>
    <linearGradient id="linear-gradient-28" x1="1047.67" y1="829.29" x2="1013.67" y2="924.29" gradientUnits="userSpaceOnUse">
      <stop offset="0" stop-color="#e1473d"/>
      <stop offset="1" stop-color="#e9605a"/>
    </linearGradient>
    <linearGradient id="linear-gradient-29" x1="1018.36" y1="1001.25" x2="1079.91" y2="1001.25" xlink:href="#linear-gradient-23"/>
    <linearGradient id="linear-gradient-30" x1="1057.85" y1="692.55" x2="1012.85" y2="878.57" xlink:href="#linear-gradient-21"/>
    <linearGradient id="linear-gradient-31" x1="1178.46" y1="991.38" x2="1020.92" y2="1187.37" xlink:href="#linear-gradient-23"/>
    <linearGradient id="linear-gradient-32" x1="3522.46" y1="3849.16" x2="3389.47" y2="4014.61" gradientTransform="translate(2114.69 -4033.33) rotate(52.39)" xlink:href="#linear-gradient-23"/>
    <linearGradient id="linear-gradient-33" x1="1008.11" y1="914.67" x2="879.3" y2="1151.34" xlink:href="#linear-gradient-23"/>
    <linearGradient id="linear-gradient-34" x1="2075.76" y1="-2878.19" x2="2055.21" y2="-2945.99" gradientTransform="translate(2228.16 4309.25) rotate(-56.37)" xlink:href="#linear-gradient-23"/>
    <linearGradient id="linear-gradient-35" x1="2057.21" y1="-3002.68" x2="2076.32" y2="-2893.67" gradientTransform="translate(2228.16 4309.25) rotate(-56.37)" xlink:href="#linear-gradient-19"/>
    <linearGradient id="linear-gradient-36" x1="2054.47" y1="-2871.74" x2="2033.91" y2="-2939.53" gradientTransform="translate(2228.16 4309.25) rotate(-56.37)" xlink:href="#linear-gradient-23"/>
    <linearGradient id="linear-gradient-37" x1="1178.08" y1="1095.17" x2="1542.08" y2="423.16" xlink:href="#linear-gradient-21"/>
    <linearGradient id="linear-gradient-38" x1="602.98" y1="318" x2="797.24" y2="318" xlink:href="#linear-gradient"/>
    <linearGradient id="linear-gradient-39" x1="2042.45" y1="293.05" x2="1991.94" y2="397.16" gradientTransform="translate(-46.67 443.23) rotate(9.25)" xlink:href="#linear-gradient-19"/>
    <linearGradient id="linear-gradient-40" x1="1886.45" y1="1528.94" x2="1846.68" y2="1265.15" xlink:href="#linear-gradient-21"/>
    <linearGradient id="linear-gradient-41" x1="1754.57" y1="1265.62" x2="1861.09" y2="1522.93" gradientUnits="userSpaceOnUse">
      <stop offset="0" stop-color="#a22b25"/>
      <stop offset="1" stop-color="#c0423c"/>
    </linearGradient>
    <linearGradient id="linear-gradient-42" x1="-7346.48" y1="1265.07" x2="-7239.96" y2="1522.38" gradientTransform="translate(-5403.07) rotate(-180) scale(1 -1)" xlink:href="#linear-gradient-41"/>
    <linearGradient id="linear-gradient-43" x1="1849.19" y1="1299.01" x2="1843.66" y2="1522.75" xlink:href="#linear-gradient-19"/>
    <linearGradient id="linear-gradient-44" x1="1939.11" y1="869.54" x2="1947.11" y2="1253.54" gradientTransform="translate(1.59 21.57) rotate(.44)" xlink:href="#linear-gradient-19"/>
    <linearGradient id="linear-gradient-45" x1="1951.54" y1="1328.86" x2="1890.1" y2="1495.29" xlink:href="#linear-gradient-41"/>
    <linearGradient id="linear-gradient-46" x1="-7850.65" y1="965.96" x2="-7842.65" y2="1349.96" gradientTransform="translate(-6070.47 -63.41) rotate(-178.85) scale(1 -1)" xlink:href="#linear-gradient-19"/>
    <linearGradient id="linear-gradient-47" x1="1828.44" y1="1278.7" x2="1766.96" y2="1445.22" xlink:href="#linear-gradient-41"/>
    <linearGradient id="linear-gradient-48" x1="1880.06" y1="1386.17" x2="1792.06" y2="1545.51" xlink:href="#linear-gradient-10"/>
    <linearGradient id="linear-gradient-49" x1="1826.52" y1="1210.58" x2="1824.52" y2="1266.58" xlink:href="#linear-gradient-10"/>
    <linearGradient id="linear-gradient-50" x1="1851.91" y1="1176.8" x2="1840.58" y2="1300.8" xlink:href="#linear-gradient-41"/>
    <linearGradient id="linear-gradient-51" x1="1849.95" y1="1128.28" x2="1852.62" y2="1200.95" xlink:href="#linear-gradient-41"/>
    <linearGradient id="linear-gradient-52" x1="2042.82" y1="278.4" x2="1985.99" y2="395.55" gradientTransform="translate(-46.67 443.23) rotate(9.25)" xlink:href="#linear-gradient-19"/>
    <linearGradient id="linear-gradient-53" x1="1822.86" y1="1129.28" x2="1825.53" y2="1201.94" xlink:href="#linear-gradient-41"/>
  </defs>
  <g>
    <g>
      <g class="cls-17">
        <path class="cls-2" d="M144.28,664.06c-2.14,0-4.12-1.4-4.75-3.56-.76-2.58-1.48-5.21-2.14-7.82-.67-2.65,.93-5.35,3.58-6.02,2.65-.67,5.35,.93,6.02,3.58,.63,2.49,1.32,5,2.04,7.46,.77,2.62-.73,5.38-3.36,6.15-.47,.14-.94,.2-1.4,.2Z"/>
        <path class="cls-2" d="M137.41,631.56c-2.45,0-4.58-1.82-4.9-4.31-.69-5.24-1.19-10.58-1.5-15.87-.16-2.73,1.93-5.07,4.66-5.23,2.73-.17,5.07,1.93,5.23,4.66,.29,5.05,.78,10.15,1.43,15.16,.36,2.71-1.55,5.2-4.27,5.55-.22,.03-.44,.04-.65,.04Zm-1.45-40.83c-.1,0-.19,0-.29,0-2.73-.16-4.82-2.5-4.66-5.23,.05-.83,.1-1.66,.16-2.49,.31-4.46,.76-8.96,1.33-13.37,.35-2.71,2.84-4.63,5.55-4.27,2.71,.35,4.63,2.84,4.27,5.55-.55,4.21-.97,8.51-1.27,12.78-.06,.79-.11,1.59-.15,2.38-.15,2.63-2.34,4.67-4.94,4.67Zm6.16-40.37c-.4,0-.8-.05-1.21-.15-2.65-.67-4.26-3.36-3.6-6.01,1.29-5.14,2.78-10.29,4.44-15.31,.86-2.6,3.66-4.01,6.26-3.15,2.6,.86,4.01,3.66,3.15,6.25-1.58,4.79-3.01,9.71-4.24,14.61-.56,2.25-2.58,3.75-4.8,3.75Zm13.66-38.5c-.7,0-1.41-.15-2.09-.47-2.48-1.16-3.55-4.1-2.39-6.58,2.24-4.8,4.68-9.58,7.27-14.2,1.33-2.39,4.35-3.24,6.74-1.91,2.39,1.33,3.24,4.35,1.91,6.74-2.47,4.42-4.8,8.98-6.94,13.56-.84,1.8-2.63,2.86-4.49,2.86Zm20.72-35.22c-1.01,0-2.02-.31-2.9-.94-2.22-1.6-2.71-4.7-1.11-6.92,3.1-4.29,6.4-8.51,9.81-12.57,1.76-2.09,4.88-2.36,6.98-.61,2.09,1.76,2.37,4.88,.61,6.98-3.25,3.87-6.41,7.91-9.37,12.01-.97,1.34-2.48,2.05-4.02,2.05Zm26.98-30.68c-1.32,0-2.63-.52-3.61-1.56-1.88-1.99-1.78-5.13,.21-7,3.85-3.62,7.88-7.15,11.98-10.5,2.12-1.73,5.24-1.41,6.97,.71,1.73,2.12,1.41,5.24-.71,6.97-3.92,3.2-7.78,6.57-11.45,10.03-.96,.9-2.18,1.35-3.39,1.35Zm32.24-25.08c-1.64,0-3.24-.81-4.18-2.29-1.47-2.31-.79-5.37,1.52-6.84,4.46-2.84,9.08-5.56,13.74-8.07,2.41-1.3,5.41-.4,6.71,2,1.3,2.41,.4,5.41-2,6.71-4.45,2.4-8.86,4.99-13.12,7.71-.82,.53-1.75,.78-2.66,.78Zm210.35-12.05c-.73,0-1.46-.16-2.16-.5-4.55-2.21-9.23-4.28-13.92-6.16-2.54-1.01-3.78-3.9-2.76-6.44,1.01-2.54,3.9-3.78,6.44-2.76,4.91,1.96,9.82,4.13,14.58,6.45,2.46,1.2,3.48,4.16,2.29,6.62-.86,1.76-2.62,2.79-4.46,2.79Zm-174-6.54c-1.97,0-3.83-1.18-4.61-3.13-1.01-2.54,.23-5.42,2.78-6.43,4.92-1.95,9.97-3.75,15-5.33,2.61-.82,5.39,.63,6.21,3.23,.82,2.61-.63,5.39-3.24,6.21-4.81,1.52-9.63,3.23-14.33,5.09-.6,.24-1.22,.35-1.83,.35Zm135.73-7.75c-.42,0-.86-.06-1.29-.17-4.88-1.31-9.87-2.45-14.84-3.41-2.69-.51-4.45-3.11-3.93-5.8,.52-2.69,3.11-4.45,5.8-3.93,5.21,1,10.43,2.2,15.54,3.57,2.64,.71,4.21,3.42,3.5,6.07-.59,2.21-2.59,3.67-4.78,3.67Zm-96.53-3.64c-2.33,0-4.41-1.66-4.86-4.03-.51-2.69,1.26-5.28,3.94-5.79,5.19-.98,10.49-1.79,15.75-2.4,2.71-.32,5.17,1.63,5.49,4.35,.31,2.72-1.64,5.17-4.35,5.49-5.02,.58-10.09,1.35-15.05,2.29-.31,.06-.62,.09-.93,.09Zm56.25-3.17c-.12,0-.24,0-.36-.01l-.95-.07c-4.75-.33-9.55-.5-14.28-.51-2.74,0-4.95-2.23-4.94-4.96,0-2.73,2.22-4.94,4.95-4.94h.01c4.94,.01,9.96,.19,14.93,.53l.98,.07c2.73,.2,4.78,2.57,4.59,5.3-.19,2.61-2.36,4.6-4.94,4.6Z"/>
        <path class="cls-2" d="M474.84,425.71c-.98,0-1.96-.29-2.82-.89-2.11-1.46-4.27-2.91-6.43-4.3-2.3-1.48-2.97-4.54-1.49-6.84,1.48-2.3,4.54-2.97,6.85-1.49,2.26,1.45,4.53,2.97,6.73,4.5,2.25,1.56,2.8,4.65,1.24,6.89-.96,1.38-2.5,2.12-4.07,2.12Z"/>
      </g>
      <g class="cls-17">
        <path class="cls-2" d="M564.82,567.9c-2.38,0-4.48-1.72-4.88-4.15-.42-2.54-.89-5.1-1.4-7.61-.54-2.68,1.19-5.3,3.87-5.84,2.68-.54,5.3,1.19,5.84,3.87,.53,2.63,1.03,5.31,1.47,7.97,.44,2.7-1.38,5.25-4.08,5.69-.27,.04-.54,.07-.81,.07Z"/>
        <path class="cls-2" d="M339.4,818.91c-.09,0-.19,0-.28,0-.91-.05-1.82-.11-2.73-.17-4.29-.3-8.63-.72-12.89-1.27-2.71-.35-4.63-2.83-4.29-5.54,.35-2.71,2.82-4.64,5.54-4.29,4.07,.52,8.22,.93,12.32,1.21,.87,.06,1.74,.12,2.6,.16,2.73,.15,4.82,2.49,4.66,5.23-.15,2.64-2.33,4.67-4.94,4.67Zm24.9,0c-2.61,0-4.79-2.03-4.94-4.67-.16-2.73,1.93-5.07,4.66-5.23,4.97-.29,9.99-.75,14.91-1.39,2.71-.36,5.2,1.56,5.55,4.28,.35,2.71-1.56,5.2-4.28,5.55-5.16,.67-10.41,1.16-15.61,1.46-.1,0-.19,0-.29,0Zm-64.65-5.97c-.39,0-.79-.05-1.19-.15-5.06-1.25-10.14-2.69-15.09-4.3-2.6-.84-4.03-3.64-3.19-6.24,.84-2.6,3.63-4.03,6.24-3.19,4.73,1.53,9.58,2.91,14.41,4.1,2.66,.66,4.28,3.34,3.62,6-.56,2.26-2.58,3.77-4.81,3.77Zm104.38-.07c-2.22,0-4.24-1.5-4.8-3.75-.66-2.65,.95-5.34,3.61-6.01,4.81-1.2,9.65-2.59,14.37-4.14,2.6-.85,5.4,.57,6.25,3.17,.85,2.6-.57,5.4-3.17,6.25-4.95,1.62-10.01,3.08-15.05,4.34-.4,.1-.81,.15-1.2,.15Zm-142.35-13.17c-.69,0-1.39-.15-2.06-.45-4.73-2.17-9.45-4.54-14.02-7.04-2.4-1.31-3.28-4.32-1.97-6.72,1.31-2.4,4.32-3.28,6.72-1.97,4.37,2.39,8.87,4.65,13.39,6.72,2.49,1.14,3.58,4.08,2.44,6.57-.83,1.82-2.63,2.89-4.51,2.89Zm180.23-.16c-1.87,0-3.67-1.07-4.5-2.88-1.15-2.48-.06-5.43,2.43-6.57,4.51-2.08,9-4.35,13.36-6.74,2.4-1.32,5.41-.44,6.73,1.95,1.32,2.4,.44,5.41-1.95,6.73-4.57,2.51-9.27,4.89-13.99,7.06-.67,.31-1.38,.46-2.07,.46Zm34.77-20.13c-1.55,0-3.08-.72-4.04-2.08-1.58-2.23-1.06-5.32,1.17-6.91,4.06-2.88,8.06-5.94,11.9-9.1,2.11-1.74,5.23-1.43,6.97,.68,1.74,2.11,1.43,5.23-.68,6.97-4.02,3.3-8.21,6.51-12.45,9.52-.87,.62-1.87,.92-2.86,.92Zm30.46-26.21c-1.24,0-2.48-.46-3.44-1.39-1.97-1.9-2.02-5.04-.12-7,3.46-3.58,6.83-7.33,10.02-11.14,1.76-2.1,4.88-2.37,6.98-.62,2.1,1.76,2.37,4.88,.62,6.98-3.34,3.99-6.87,7.91-10.49,11.66-.97,1.01-2.27,1.51-3.56,1.51Zm25.12-31.38c-.93,0-1.88-.26-2.72-.82-2.29-1.5-2.92-4.57-1.42-6.86,2.74-4.16,5.36-8.47,7.79-12.8,1.34-2.39,4.36-3.23,6.74-1.9,2.39,1.34,3.24,4.36,1.9,6.74-2.54,4.54-5.29,9.05-8.15,13.41-.95,1.45-2.53,2.23-4.14,2.23Zm18.87-35.51c-.63,0-1.28-.12-1.9-.38-2.53-1.05-3.72-3.95-2.67-6.48,1.91-4.59,3.68-9.31,5.26-14.02,.87-2.59,3.68-3.99,6.27-3.12,2.59,.87,3.99,3.68,3.12,6.27-1.65,4.94-3.51,9.88-5.51,14.68-.79,1.9-2.63,3.05-4.57,3.05Zm11.91-38.38c-.34,0-.68-.03-1.02-.11-2.68-.56-4.39-3.19-3.83-5.87,1.02-4.86,1.88-9.83,2.56-14.76,.37-2.71,2.87-4.61,5.58-4.23,2.71,.37,4.61,2.87,4.23,5.58-.71,5.16-1.61,10.36-2.68,15.45-.49,2.33-2.55,3.94-4.84,3.94Zm4.6-39.92s-.08,0-.12,0c-2.73-.06-4.9-2.33-4.84-5.07,.04-1.64,.06-3.27,.06-4.89,0-3.35-.08-6.74-.24-10.09-.13-2.73,1.98-5.05,4.71-5.18,2.74-.13,5.05,1.98,5.18,4.71,.17,3.5,.25,7.06,.25,10.56,0,1.7-.02,3.41-.06,5.12-.06,2.7-2.27,4.84-4.95,4.84Z"/>
        <path class="cls-2" d="M226.71,779.51c-.99,0-1.99-.3-2.86-.92-2.2-1.57-4.4-3.18-6.52-4.81-2.17-1.66-2.58-4.77-.92-6.94,1.66-2.17,4.77-2.58,6.94-.92,2.03,1.55,4.12,3.1,6.23,4.6,2.23,1.58,2.75,4.68,1.17,6.91-.97,1.36-2.49,2.08-4.04,2.08Z"/>
      </g>
      <g>
        <path class="cls-7" d="M234.97,716.31c.7,.86,1.87,1.18,2.9,.79l29.62-10.89c11.68,8.99,24.87,16.19,39.22,21.12l7.22,30.7c.25,1.08,1.16,1.87,2.26,1.99l37.66,3.82c1.1,.11,2.15-.49,2.62-1.49l13.23-28.63c15.04-1.95,29.41-6.36,42.65-12.83l26.83,16.61c.94,.58,2.15,.5,3-.2l29.33-23.93c.86-.7,1.18-1.87,.79-2.9l-10.89-29.62c8.99-11.68,16.19-24.87,21.12-39.22l30.7-7.22c1.08-.25,1.87-1.16,1.99-2.26l3.82-37.66c.11-1.1-.49-2.15-1.49-2.61l-28.63-13.23c-1.95-15.04-6.36-29.41-12.83-42.65l16.61-26.83c.58-.94,.5-2.15-.2-3l-23.93-29.33c-.7-.86-1.87-1.18-2.9-.79l-29.62,10.89c-11.68-8.99-24.87-16.19-39.22-21.12l-7.22-30.7c-.25-1.08-1.16-1.87-2.26-1.99l-37.66-3.81c-1.1-.11-2.15,.49-2.61,1.49l-13.23,28.63c-15.04,1.95-29.41,6.36-42.65,12.83l-26.83-16.61c-.94-.58-2.15-.5-3,.2l-29.33,23.93c-.86,.7-1.18,1.87-.79,2.9l10.89,29.62c-8.99,11.68-16.19,24.87-21.12,39.22l-30.7,7.22c-1.08,.25-1.87,1.16-1.99,2.26l-3.82,37.66c-.11,1.1,.49,2.15,1.49,2.62l28.63,13.23c1.95,15.04,6.36,29.41,12.83,42.65l-16.61,26.83c-.58,.94-.5,2.15,.2,3l23.93,29.33Z"/>
        <path class="cls-1" d="M351.76,636.12c-19.28,0-36.22-14.16-39.11-33.79-1.54-10.45,1.08-20.88,7.38-29.36,6.3-8.48,15.53-14,25.98-15.54,21.58-3.18,41.72,11.79,44.9,33.37,3.18,21.58-11.79,41.72-33.37,44.9h0c-1.95,.29-3.88,.43-5.79,.43Zm4.93-6.31h0Zm-4.88-60.93c-1.34,0-2.69,.1-4.05,.3-7.31,1.08-13.77,4.94-18.17,10.87-4.41,5.93-6.24,13.23-5.17,20.54,2.22,15.09,16.32,25.56,31.41,23.34,15.09-2.22,25.56-16.31,23.34-31.41-2.02-13.73-13.87-23.64-27.36-23.64Z"/>
        <path class="cls-12" d="M352.43,689.33c-3.13,0-6.29-.16-9.47-.48-1.27-.13-2.53-.28-3.79-.46-5.33-.76-10.57-1.97-15.65-3.62-.84-.27-1.37-1.05-1.37-1.88,0-.2,.03-.41,.1-.61,.34-1.04,1.46-1.61,2.5-1.27,6.01,1.95,12.28,3.26,18.62,3.9h0c32.72,3.32,63.16-11.55,81.27-36.37,8.65-11.85,14.48-25.98,16.41-41.48,.08-.68,.16-1.36,.23-2.05,.31-3.05,.46-6.09,.46-9.09,0-45.25-34.39-84.17-80.36-88.83-49.02-4.96-92.95,30.88-97.91,79.9-.31,3.02-.46,6.05-.46,9.07,0,13.08,2.87,26.01,8.43,37.86,.13,.27,.19,.56,.19,.84,0,.74-.42,1.46-1.14,1.79-.99,.46-2.17,.04-2.64-.95-5.81-12.38-8.81-25.88-8.81-39.54,0-3.15,.16-6.31,.48-9.47,5.19-51.2,51.06-88.62,102.26-83.45,48.01,4.86,83.92,45.5,83.92,92.76,0,3.14-.16,6.3-.48,9.49-4.86,48.01-45.52,83.92-92.78,83.92Z"/>
      </g>
    </g>
    <g>
      <g class="cls-17">
        <path class="cls-2" d="M459.34,416.6c-2.14,0-4.12-1.4-4.75-3.56-.77-2.63-1.46-5.33-2.05-8-.59-2.67,1.1-5.31,3.77-5.9,2.67-.59,5.31,1.1,5.9,3.77,.54,2.46,1.17,4.93,1.88,7.34,.77,2.62-.73,5.38-3.36,6.15-.47,.14-.94,.2-1.4,.2Z"/>
        <path class="cls-2" d="M454.68,383.89h0c-2.74,0-4.95-2.22-4.95-4.96,0-2.74,.1-5.53,.29-8.28,.18-2.61,.45-5.25,.8-7.84,.36-2.71,2.86-4.62,5.57-4.25,2.71,.36,4.62,2.86,4.25,5.57-.32,2.38-.56,4.81-.73,7.2-.18,2.53-.27,5.09-.27,7.62,0,2.73-2.22,4.95-4.95,4.95Zm7.07-39.89c-.57,0-1.14-.1-1.7-.3-2.57-.94-3.89-3.79-2.95-6.35,1.85-5.05,4.06-10.02,6.58-14.78,1.28-2.42,4.27-3.35,6.69-2.07,2.42,1.28,3.34,4.28,2.07,6.69-2.31,4.37-4.34,8.93-6.04,13.56-.74,2.01-2.63,3.25-4.65,3.25Zm20.41-35.01c-1.13,0-2.27-.39-3.2-1.18-2.09-1.77-2.34-4.9-.57-6.98,3.48-4.09,7.26-8,11.26-11.6,2.03-1.83,5.16-1.67,7,.36,1.83,2.03,1.67,5.16-.36,7-3.67,3.31-7.15,6.89-10.34,10.65-.98,1.15-2.37,1.75-3.78,1.75Zm31.2-25.86c-1.72,0-3.4-.9-4.31-2.5-1.35-2.38-.52-5.4,1.85-6.75,4.68-2.66,9.57-5.03,14.55-7.04,2.54-1.02,5.42,.21,6.45,2.74,1.02,2.54-.2,5.42-2.74,6.45-4.57,1.84-9.06,4.01-13.35,6.46-.77,.44-1.62,.65-2.45,.65Zm93.71-9.26c-.52,0-1.04-.08-1.56-.25-4.68-1.55-9.52-2.79-14.37-3.7-2.69-.5-4.46-3.09-3.96-5.78,.5-2.69,3.09-4.46,5.78-3.96,5.29,.99,10.56,2.35,15.66,4.03,2.6,.86,4.01,3.66,3.15,6.26-.69,2.08-2.62,3.4-4.7,3.4Zm-55.55-4.3c-2.38,0-4.48-1.72-4.88-4.14-.45-2.7,1.38-5.25,4.08-5.7,5.29-.88,10.7-1.41,16.09-1.57,2.74-.05,5.02,2.07,5.1,4.8,.08,2.73-2.07,5.02-4.8,5.1-4.94,.15-9.91,.64-14.77,1.44-.27,.05-.55,.07-.82,.07Z"/>
        <path class="cls-2" d="M636.72,288.69c-.98,0-1.96-.29-2.82-.89-2.07-1.44-4.21-2.82-6.37-4.11-2.35-1.4-3.11-4.45-1.71-6.79,1.4-2.35,4.45-3.11,6.79-1.71,2.35,1.4,4.68,2.91,6.94,4.48,2.25,1.56,2.8,4.65,1.24,6.89-.96,1.38-2.5,2.13-4.07,2.13Z"/>
      </g>
      <g class="cls-17">
        <path class="cls-2" d="M685.54,368.63c-2.45,0-4.57-1.81-4.9-4.3-.33-2.5-.75-5.02-1.25-7.48-.54-2.68,1.19-5.3,3.87-5.84,2.68-.54,5.3,1.19,5.84,3.87,.54,2.68,1,5.43,1.36,8.15,.36,2.71-1.55,5.2-4.26,5.56-.22,.03-.44,.04-.66,.04Z"/>
        <path class="cls-2" d="M570.73,499.88c-1.02,0-2.03-.01-3.06-.04-2.73-.07-4.9-2.34-4.83-5.07,.07-2.73,2.35-4.91,5.07-4.83,4.89,.12,9.78-.08,14.59-.59,2.71-.29,5.16,1.68,5.45,4.4,.29,2.72-1.68,5.16-4.4,5.45-4.23,.45-8.55,.68-12.83,.68Zm-27.48-3.26c-.39,0-.78-.05-1.17-.14-5.14-1.24-10.25-2.84-15.18-4.75-2.55-.99-3.82-3.86-2.83-6.41,.99-2.55,3.86-3.82,6.41-2.83,4.53,1.75,9.21,3.22,13.93,4.36,2.66,.64,4.29,3.32,3.65,5.98-.55,2.27-2.58,3.79-4.81,3.79Zm63.96-2.64c-2.07,0-4.01-1.31-4.7-3.39-.86-2.6,.54-5.4,3.13-6.26,4.59-1.53,9.14-3.38,13.5-5.51,2.46-1.2,5.42-.18,6.62,2.28,1.2,2.46,.18,5.42-2.28,6.62-4.76,2.32-9.71,4.34-14.71,6.01-.52,.17-1.05,.25-1.57,.25Zm35.07-18.91c-1.47,0-2.92-.65-3.9-1.89-1.69-2.15-1.32-5.26,.83-6.96,3.81-3,7.47-6.29,10.86-9.76,1.91-1.96,5.05-2,7-.09,1.96,1.91,2,5.05,.09,7-3.69,3.78-7.67,7.36-11.82,10.63-.91,.71-1.99,1.06-3.06,1.06Zm26.64-29.65c-.9,0-1.81-.24-2.62-.76-2.32-1.45-3.02-4.51-1.57-6.83,2.58-4.12,4.91-8.45,6.92-12.86,1.13-2.49,4.07-3.59,6.56-2.46,2.49,1.13,3.59,4.07,2.46,6.56-2.19,4.81-4.72,9.53-7.54,14.01-.94,1.5-2.55,2.32-4.2,2.32Zm15.01-36.94c-.35,0-.7-.04-1.05-.11-2.67-.57-4.38-3.21-3.8-5.88,1.02-4.73,1.73-9.59,2.13-14.44,.22-2.73,2.61-4.78,5.34-4.54,2.73,.22,4.76,2.61,4.53,5.34-.43,5.29-1.21,10.58-2.32,15.72-.5,2.32-2.55,3.91-4.84,3.91Z"/>
        <path class="cls-2" d="M506.6,480.63c-.94,0-1.89-.27-2.73-.83-2.28-1.51-4.54-3.12-6.72-4.8-2.17-1.66-2.58-4.77-.92-6.94,1.66-2.17,4.77-2.58,6.94-.92,2,1.54,4.08,3.02,6.17,4.4,2.28,1.51,2.9,4.59,1.39,6.87-.95,1.44-2.53,2.22-4.13,2.22Z"/>
      </g>
      <g>
        <path class="cls-7" d="M508.01,442.34c.37,.46,1,.63,1.56,.43l15.89-5.85c6.27,4.83,13.35,8.69,21.04,11.33l3.88,16.47c.14,.58,.62,1.01,1.21,1.07l20.21,2.05c.59,.06,1.15-.26,1.4-.8l7.1-15.36c8.07-1.05,15.78-3.41,22.89-6.88l14.4,8.91c.5,.31,1.15,.27,1.61-.1l15.74-12.84c.46-.38,.63-1,.43-1.56l-5.84-15.89c4.83-6.27,8.69-13.35,11.33-21.04l16.47-3.88c.58-.14,1.01-.62,1.07-1.21l2.05-20.21c.06-.59-.26-1.15-.8-1.4l-15.36-7.1c-1.05-8.07-3.41-15.78-6.88-22.89l8.91-14.4c.31-.5,.27-1.15-.11-1.61l-12.84-15.74c-.38-.46-1-.63-1.56-.43l-15.89,5.84c-6.27-4.83-13.35-8.69-21.04-11.33l-3.88-16.47c-.14-.58-.62-1.01-1.21-1.07l-20.21-2.05c-.59-.06-1.15,.26-1.4,.8l-7.1,15.36c-8.07,1.05-15.78,3.41-22.89,6.88l-14.4-8.91c-.5-.31-1.15-.27-1.61,.11l-15.74,12.84c-.46,.38-.63,1-.43,1.56l5.84,15.89c-4.83,6.27-8.69,13.35-11.33,21.04l-16.47,3.88c-.58,.14-1.01,.62-1.07,1.21l-2.05,20.21c-.06,.59,.26,1.15,.8,1.4l15.36,7.1c1.05,8.07,3.41,15.78,6.88,22.89l-8.91,14.4c-.31,.5-.27,1.15,.11,1.61l12.84,15.74Z"/>
        <path class="cls-3" d="M570.64,402.06c-5.11,0-10.07-1.63-14.25-4.74-5.14-3.82-8.49-9.41-9.42-15.75-.93-6.34,.66-12.66,4.48-17.8,3.82-5.14,9.41-8.49,15.75-9.42,13.08-1.94,25.29,7.15,27.22,20.23,.93,6.34-.66,12.66-4.48,17.8-3.82,5.14-9.41,8.49-15.75,9.42-1.19,.18-2.37,.26-3.55,.26Zm.06-36.08c-.58,0-1.18,.04-1.77,.13-3.2,.47-6.02,2.16-7.94,4.75-1.93,2.59-2.73,5.78-2.26,8.98,.47,3.2,2.16,6.02,4.75,7.94,2.59,1.93,5.78,2.73,8.98,2.26h0c3.2-.47,6.02-2.16,7.94-4.75,1.93-2.59,2.73-5.78,2.26-8.98-.88-6-6.06-10.33-11.96-10.33Z"/>
        <path class="cls-10" d="M571.1,428.78c-1.74,0-3.48-.09-5.23-.27h0c-3.62-.37-7.2-1.12-10.63-2.23-.84-.27-1.37-1.05-1.37-1.88,0-.2,.03-.41,.1-.61,.34-1.04,1.45-1.61,2.5-1.27,3.16,1.03,6.46,1.72,9.8,2.05,25.81,2.61,48.92-16.25,51.53-42.05,.16-1.62,.24-3.23,.24-4.84,0-10.79-3.68-21.17-10.6-29.64-7.94-9.73-19.2-15.79-31.7-17.06-25.8-2.62-48.92,16.25-51.54,42.05-.16,1.59-.24,3.18-.24,4.77,0,6.88,1.51,13.69,4.44,19.93,.13,.27,.19,.56,.19,.84,0,.74-.42,1.46-1.14,1.8-.99,.47-2.17,.04-2.64-.95-3.18-6.77-4.82-14.16-4.81-21.64,0-1.71,.09-3.43,.26-5.15,2.83-27.98,27.9-48.42,55.88-45.6,26.23,2.66,45.86,24.87,45.86,50.69,0,1.71-.09,3.44-.26,5.19-1.37,13.55-7.94,25.76-18.49,34.37-9.19,7.5-20.44,11.49-32.15,11.49Z"/>
      </g>
    </g>
  </g>
  <path class="cls-11" d="M1175.51,1373.13s-634.66,6.54-811.44-140.66c-176.78-147.2-110.24-293.96,25.12-335.53,135.36-41.57,158.45-84.81,85.61-143.13-72.83-58.32-165.34-178.03-11.75-298.33,153.59-120.3,328.85,52.49,466.12,29.55,137.28-22.95,82.91-100.22,263.43-46.85,180.53,53.37,140.72-102.02,285.86-116.1,145.13-14.08,130.26,161.62,279.54,95.3,149.28-66.32,271.38-57.17,335.56,48.16,64.18,105.33,36.3,247.2-104.5,331.74-140.8,84.55-125.69,78.78-73.07,161.86,52.62,83.08,99.8,356.28-139.75,395.31-239.55,39.02-600.74,18.69-600.74,18.69Z"/>
  <g>
    <g>
      <path class="cls-5" d="M1801.81,412c27.56-38.74,81.32-47.81,120.06-20.24,38.74,27.56,47.81,81.32,20.24,120.06,0,0,0,0,0,0-15.33,21.54-20.66,48.62-14.66,74.36,6.89,29.59,1.54,61.88-17.46,88.59,0,0,0,0,0,0-18.55,26.06-23.89,59.28-14.52,89.86,10.97,35.77,5.78,76.06-17.59,108.91-39.92,56.11-117.77,69.24-173.89,29.32-56.11-39.92-69.24-117.77-29.32-173.89,2.13-3,4.38-5.88,6.72-8.63,22.94-26.96,33.75-62.18,29.9-97.37-2.83-25.82,3.44-52.73,19.68-75.57,7.14-10.03,15.65-18.5,25.1-25.34,18.97-13.73,30.07-35.83,29.8-59.25-.21-17.59,4.96-35.4,15.94-50.84Z"/>
      <path class="cls-7" d="M1764.23,889.9c-.07,0-.14,0-.21,0-1.21-.11-2.09-1.18-1.98-2.38,22.98-246.13,102.33-425.61,103.13-427.4,.49-1.1,1.79-1.6,2.89-1.1,1.1,.49,1.6,1.79,1.1,2.89-.8,1.78-79.86,180.64-102.77,426.01-.11,1.14-1.06,1.99-2.18,1.99Z"/>
      <path class="cls-7" d="M1839.96,538.16c-1.19,0-2.17-.95-2.19-2.15-.02-1.21,.94-2.21,2.15-2.23,24.78-.43,67.7-35.35,68.13-35.7,.94-.77,2.32-.63,3.08,.31,.77,.94,.63,2.32-.31,3.08-1.81,1.48-44.54,36.23-70.83,36.69h-.04Z"/>
      <path class="cls-7" d="M1838.58,537.18c-.7,0-1.38-.33-1.81-.95-.89-1.28-21.75-31.79-26.21-62.12-.18-1.2,.65-2.31,1.85-2.49,1.18-.18,2.31,.65,2.49,1.85,4.31,29.31,25.27,59.97,25.48,60.27,.69,1,.44,2.36-.56,3.05-.38,.26-.81,.39-1.24,.39Z"/>
      <path class="cls-7" d="M1803.72,662.91c-1.04,0-1.96-.74-2.15-1.79-.22-1.19,.56-2.33,1.75-2.55,40.13-7.46,76.89-45.21,77.25-45.59,.84-.87,2.23-.9,3.1-.06,.87,.84,.9,2.23,.06,3.1-1.54,1.59-38.11,39.15-79.61,46.86-.13,.02-.27,.04-.4,.04Z"/>
      <path class="cls-7" d="M1802.6,663.18c-.46,0-.91-.14-1.31-.43-1.31-.97-32.14-24.49-42.26-77.95-.23-1.19,.56-2.33,1.74-2.56,1.2-.23,2.33,.56,2.56,1.74,9.78,51.69,40.26,75.03,40.57,75.26,.97,.73,1.17,2.1,.44,3.07-.43,.58-1.09,.88-1.76,.88Z"/>
      <path class="cls-2" d="M1770.6,819.18c-.44,0-.88-.13-1.27-.41-1.55-1.11-38.21-27.62-50.8-74.41-.31-1.17,.38-2.37,1.55-2.68,1.17-.31,2.37,.38,2.68,1.55,12.18,45.28,48.74,71.71,49.11,71.97,.99,.7,1.22,2.07,.52,3.05-.43,.6-1.1,.92-1.79,.92Z"/>
      <path class="cls-2" d="M1772.09,819.64c-1.11,0-2.06-.84-2.18-1.97-.12-1.2,.75-2.28,1.95-2.4,.38-.04,38.71-4.44,73.67-43.64,.8-.9,2.19-.98,3.09-.18,.9,.81,.98,2.19,.18,3.09-36.16,40.54-74.86,44.91-76.49,45.08-.08,0-.15,.01-.22,.01Z"/>
    </g>
    <g>
      <path class="cls-7" d="M2216.32,642.5c24.29-55.87-1.31-120.86-57.19-145.15-55.87-24.29-120.86,1.31-145.15,57.19,0,0,0,0,0,.01-13.5,31.06-39.69,54.82-71.91,65.27-37.03,12.01-68.93,39.24-85.67,77.75-16.33,37.57-49.24,65.45-88.98,75.36-46.53,11.61-87.33,43.96-107.93,91.34-35.18,80.92,1.9,175.04,82.82,210.22,80.92,35.18,175.04-1.9,210.22-82.82,1.88-4.33,3.56-8.69,5.03-13.08,14.41-43.01,45.92-78.16,87.09-97.21,30.21-13.97,55.6-38.65,69.91-71.58,6.29-14.47,9.96-29.41,11.21-44.3,2.52-29.9,19.43-56.7,45.31-71.89,19.44-11.41,35.57-28.86,45.25-51.11Z"/>
      <path class="cls-15" d="M1719.12,1000.55c-.67,0-1.34-.31-1.76-.89-.72-.97-.51-2.35,.46-3.06,254.22-187.49,398.27-392.62,399.7-394.67,.69-.99,2.06-1.24,3.05-.55,.99,.69,1.24,2.06,.55,3.05-1.43,2.06-145.87,207.76-400.7,395.7-.39,.29-.85,.43-1.3,.43Z"/>
      <path class="cls-13" d="M2055.05,684.81c-.76,0-1.49-.39-1.9-1.09-16.77-28.97-6.92-98.65-6.5-101.6,.17-1.2,1.3-2.02,2.48-1.85,1.2,.17,2.03,1.28,1.85,2.48-.1,.71-10.06,71.12,5.95,98.78,.61,1.05,.25,2.39-.8,2.99-.35,.2-.72,.3-1.1,.3Z"/>
      <path class="cls-14" d="M2067.64,685.94c-6.23,0-10.2-.23-10.75-.26-1.21-.07-2.13-1.11-2.05-2.32,.07-1.21,1.12-2.12,2.32-2.05,.47,.03,48.12,2.76,83.27-11.95,1.12-.47,2.4,.06,2.87,1.17,.47,1.12-.06,2.4-1.17,2.87-26.16,10.95-58.11,12.54-74.49,12.54Z"/>
      <path class="cls-8" d="M1942.1,807.08c-.89,0-1.72-.54-2.05-1.42-18.92-50.46-1.39-117.31-1.21-117.98,.31-1.17,1.51-1.87,2.68-1.55,1.17,.31,1.86,1.51,1.55,2.68-.18,.66-17.34,66.18,1.08,115.31,.42,1.13-.15,2.4-1.28,2.82-.25,.09-.51,.14-.77,.14Z"/>
      <path class="cls-9" d="M1987.98,815.64c-27.85,0-45.09-6.83-46.25-7.31-1.12-.46-1.65-1.73-1.2-2.85,.46-1.12,1.73-1.66,2.85-1.2,.46,.19,46.42,18.3,109.87-5.24,1.13-.42,2.4,.16,2.82,1.29,.42,1.13-.16,2.39-1.29,2.81-25.78,9.57-48.56,12.5-66.79,12.5Z"/>
      <path class="cls-2" d="M1860.73,959.35c-39.15,0-68.69-12.58-69.09-12.75-1.11-.48-1.62-1.77-1.13-2.88,.48-1.11,1.77-1.62,2.88-1.14,.53,.23,53.98,22.94,111.88,6.32,1.17-.33,2.38,.34,2.71,1.5,.33,1.16-.34,2.38-1.5,2.71-15.89,4.56-31.46,6.24-45.74,6.24Z"/>
      <path class="cls-2" d="M1791.02,945.44c-.82,0-1.61-.46-1.98-1.26-.89-1.89-21.59-47.04-1.08-113.31,.36-1.16,1.59-1.81,2.74-1.44,1.16,.36,1.8,1.58,1.45,2.74-10.44,33.73-9.65,61.87-7.15,79.55,2.71,19.16,7.96,30.5,8.01,30.61,.51,1.09,.04,2.4-1.05,2.91-.3,.14-.62,.21-.93,.21Z"/>
    </g>
  </g>
  <g>
    <path class="cls-45" d="M1794.78,753.66c-6.43-.15-11.61-5.34-11.72-11.78-1.2-65.94-21.77-393.38-310.13-461.8-321.03-76.18-467.95,250.3-467.95,250.3,0,0-397.21-152.35-473.39,255.74-249.06,59.77-313.77,385.03-151.77,543.97,25.74,25.25,60.24,39.53,96.29,39.85l1559.76,14.05c45.78,.41,86.37-29.55,99.38-73.44,48.72-164.45,112.58-546.27-340.47-556.88Z"/>
    <path class="cls-46" d="M1759.13,760.66c-6.42-.15-11.59-5.33-11.72-11.75-1.28-63.25-21.65-366.86-293.23-430.51-303.56-71.14-442.48,233.74-442.48,233.74,0,0-375.59-142.27-447.62,238.82-233.24,55.28-295.5,353.76-147.86,503.67,25.88,26.28,61.13,41.22,98.01,41.55l1468.3,13.06c45.88,.41,86.54-29.69,99.45-73.72,45.79-156.17,100.13-504.73-322.85-514.86Z"/>
  </g>
  <g>
    <g>
      <path class="cls-5" d="M191.01,1012.22c1.27-38.52,33.53-68.71,72.05-67.44,38.52,1.27,68.71,33.53,67.44,72.05,0,0,0,0,0,0-.71,21.41,7.81,42.09,23.39,56.8,17.9,16.91,28.75,41.12,27.87,67.67-.86,25.9,10.39,50.75,30.41,67.2,23.44,19.26,37.99,48.81,36.91,81.47-1.84,55.79-48.56,99.51-104.35,97.67-55.79-1.84-99.51-48.56-97.67-104.35,.1-2.98,.33-5.93,.68-8.84,3.43-28.49-5.04-57.12-23.4-79.17-13.47-16.18-21.29-37.17-20.54-59.87,.33-9.97,2.29-19.51,5.61-28.36,6.67-17.77,4.27-37.67-6.4-53.37-8.02-11.79-12.5-26.14-11.99-41.48Z"/>
      <path class="cls-7" d="M378.64,1352.62c-.78,0-1.54-.42-1.93-1.16-94.72-176.63-121.49-333.49-121.75-335.05-.2-1.19,.61-2.32,1.8-2.52,1.19-.2,2.32,.61,2.52,1.8,.26,1.56,26.93,157.74,121.29,333.7,.57,1.07,.17,2.39-.9,2.97-.33,.18-.68,.26-1.03,.26Z"/>
      <path class="cls-7" d="M272.3,1081.08c-.7,0-1.38-.33-1.81-.95-.69-1-.43-2.36,.56-3.05,16.42-11.3,29.75-53.98,29.88-54.41,.36-1.16,1.58-1.81,2.74-1.45,1.16,.36,1.8,1.58,1.45,2.74-.56,1.81-13.91,44.56-31.58,56.72-.38,.26-.81,.39-1.24,.39Z"/>
      <path class="cls-7" d="M270.93,1081.03c-.27,0-.55-.05-.82-.16-1.18-.47-29.01-11.77-45.68-30.34-.81-.9-.73-2.29,.17-3.09,.9-.81,2.28-.73,3.09,.17,15.99,17.82,43.77,29.09,44.05,29.2,1.12,.45,1.67,1.73,1.22,2.85-.34,.86-1.17,1.38-2.03,1.38Z"/>
      <path class="cls-7" d="M303.68,1181.58c-.57,0-1.14-.22-1.57-.67-.84-.87-.82-2.26,.05-3.1,23.66-22.89,31.58-64.75,31.66-65.17,.22-1.19,1.36-1.98,2.55-1.76,1.19,.22,1.98,1.36,1.76,2.55-.33,1.77-8.24,43.64-32.92,67.53-.43,.41-.97,.62-1.52,.62Z"/>
      <path class="cls-7" d="M303.04,1182.27s-.08,0-.12,0c-1.33-.07-32.84-2.16-63.73-33.87-.84-.87-.83-2.25,.04-3.1,.87-.84,2.25-.83,3.1,.04,29.71,30.49,60.52,32.53,60.83,32.55,1.21,.07,2.13,1.1,2.07,2.31-.06,1.17-1.03,2.07-2.18,2.07Z"/>
      <path class="cls-7" d="M351.27,1301.99s-.05,0-.07,0c-1.55-.05-38.33-1.56-67.9-27.62-.91-.8-.99-2.18-.19-3.09,.8-.91,2.18-.99,3.09-.19,28.39,25.04,64.78,26.52,65.14,26.53,1.21,.04,2.16,1.05,2.12,2.26-.04,1.18-1.01,2.12-2.19,2.12Z"/>
      <path class="cls-2" d="M352.49,1301.63c-.63,0-1.26-.27-1.69-.8-.77-.93-.63-2.31,.3-3.08,.24-.2,24.04-20.25,30.08-62.21,.17-1.2,1.28-2.03,2.48-1.86,1.2,.17,2.03,1.28,1.86,2.48-6.3,43.74-30.61,64.12-31.64,64.97-.41,.33-.9,.5-1.39,.5Z"/>
    </g>
    <g>
      <path class="cls-7" d="M463.35,834.69c-23.6-43.38-77.89-59.42-121.27-35.82-43.38,23.6-59.42,77.89-35.82,121.27,0,0,0,0,0,0,13.12,24.11,15.24,52.7,5.86,78.5-10.79,29.65-9.29,63.61,6.97,93.51,15.86,29.16,17.27,64.09,3.8,94.44-15.78,35.52-15.45,77.72,4.56,114.51,34.17,62.83,112.81,86.05,175.63,51.88,62.83-34.17,86.05-112.81,51.88-175.63-1.83-3.36-3.78-6.61-5.85-9.74-20.3-30.65-27.06-68.31-18.7-104.11,6.13-26.27,3.02-54.8-10.89-80.36-6.11-11.23-13.83-21.03-22.72-29.25-17.85-16.51-26.55-40.69-23.35-64.8,2.4-18.11-.71-37.12-10.1-54.4Z"/>
      <path class="cls-44" d="M442.87,1332.02s-.04,0-.06,0c-1.21-.03-2.16-1.04-2.13-2.25,6.93-255.9-52.32-450.13-52.92-452.06-.36-1.16,.29-2.38,1.44-2.74,1.16-.36,2.38,.29,2.74,1.44,.6,1.94,60.06,196.86,53.11,453.47-.03,1.19-1.01,2.13-2.19,2.13Z"/>
      <path class="cls-43" d="M408.59,959.94c-.1,0-.2,0-.3-.02-27.02-3.74-66.73-44.88-68.41-46.63-.84-.87-.81-2.26,.06-3.1,.87-.84,2.26-.81,3.1,.06,.4,.42,40.33,41.79,65.85,45.32,1.2,.17,2.04,1.27,1.87,2.47-.15,1.1-1.09,1.89-2.17,1.89Z"/>
      <path class="cls-33" d="M410.13,959.1c-.52,0-1.03-.18-1.45-.55-.91-.8-.99-2.19-.19-3.09,.26-.29,25.69-29.3,33.79-59.01,.32-1.17,1.53-1.85,2.69-1.54,1.17,.32,1.86,1.52,1.54,2.69-8.37,30.71-33.66,59.54-34.74,60.76-.43,.49-1.04,.74-1.64,.74Z"/>
      <path class="cls-39" d="M430.41,1093.08c-.22,0-.44-.03-.66-.1-41.8-13.11-74.82-56.36-76.2-58.19-.73-.97-.54-2.34,.43-3.07,.97-.73,2.34-.54,3.07,.43,.33,.44,33.57,43.97,74.02,56.65,1.15,.36,1.8,1.59,1.43,2.75-.29,.94-1.16,1.54-2.09,1.54Z"/>
      <path class="cls-41" d="M431.54,1093.49c-.76,0-1.5-.39-1.9-1.1-.6-1.05-.24-2.39,.81-2.99,.34-.2,34.71-20.47,51.24-72.59,.37-1.15,1.6-1.79,2.75-1.43,1.15,.37,1.79,1.6,1.43,2.75-17.08,53.84-51.77,74.22-53.24,75.06-.34,.2-.72,.29-1.09,.29Z"/>
      <path class="cls-42" d="M445.11,1258.32c-.78,0-1.53-.41-1.93-1.14-.58-1.06-.19-2.39,.88-2.97,.41-.22,41.45-23,59.63-68.14,.45-1.12,1.73-1.66,2.85-1.21,1.12,.45,1.67,1.73,1.21,2.85-18.79,46.64-61.18,70.11-61.6,70.35-.33,.18-.69,.27-1.04,.27Z"/>
      <path class="cls-34" d="M443.51,1258.6c-.16,0-.32-.02-.48-.05-1.66-.37-40.99-9.69-73.2-55.97-.69-.99-.45-2.36,.55-3.05,.99-.69,2.36-.45,3.05,.55,16.29,23.41,34.61,36.89,47.1,44.09,13.55,7.8,23.38,10.09,23.47,10.11,1.18,.27,1.92,1.44,1.65,2.62-.23,1.02-1.13,1.71-2.13,1.71Z"/>
    </g>
  </g>
  <g>
    <g>
      <g>
        <path class="cls-7" d="M1808.91,1203.24c-2.37,0-4.55-1.55-5.25-3.93-.85-2.88-1.63-5.83-2.32-8.75-.7-2.94,1.13-5.89,4.07-6.59,2.94-.7,5.89,1.13,6.59,4.07,.65,2.73,1.38,5.48,2.17,8.18,.85,2.9-.81,5.94-3.71,6.8-.52,.15-1.04,.22-1.55,.22Z"/>
        <path class="cls-7" d="M1802.52,1166.87c-2.87,0-5.28-2.23-5.46-5.14-.22-3.56-.33-7.18-.33-10.76,0-2.39,.05-4.8,.15-7.17,.13-3.02,2.7-5.37,5.7-5.24,3.02,.12,5.37,2.68,5.24,5.7-.09,2.25-.14,4.49-.14,6.72,0,3.35,.11,6.74,.31,10.08,.19,3.02-2.11,5.62-5.12,5.81-.12,0-.23,.01-.35,.01Zm3.33-45.34c-.38,0-.76-.04-1.14-.12-2.96-.63-4.85-3.53-4.22-6.49,1.23-5.83,2.79-11.66,4.63-17.33,.93-2.88,4.02-4.46,6.9-3.52,2.88,.93,4.45,4.02,3.52,6.9-1.72,5.31-3.18,10.77-4.33,16.22-.55,2.58-2.82,4.34-5.35,4.34Zm15.42-42.77c-.86,0-1.73-.2-2.54-.63-2.68-1.41-3.71-4.72-2.3-7.39,2.77-5.27,5.85-10.46,9.17-15.42,1.68-2.51,5.08-3.19,7.59-1.52,2.52,1.68,3.19,5.08,1.51,7.59-3.1,4.65-5.99,9.51-8.58,14.44-.98,1.86-2.88,2.93-4.85,2.93Zm26.46-36.98c-1.35,0-2.7-.5-3.76-1.5-2.2-2.08-2.29-5.54-.22-7.74,4.09-4.33,8.46-8.49,12.98-12.37,2.29-1.97,5.75-1.71,7.72,.59,1.97,2.29,1.71,5.75-.59,7.72-4.24,3.64-8.33,7.54-12.16,11.59-1.08,1.14-2.53,1.71-3.98,1.71Zm35.43-28.49c-1.86,0-3.67-.95-4.7-2.66-1.56-2.59-.72-5.96,1.87-7.51,5.11-3.07,10.43-5.91,15.83-8.43,2.74-1.28,6-.1,7.28,2.64,1.28,2.74,.1,6-2.64,7.28-5.05,2.36-10.04,5.02-14.82,7.89-.88,.53-1.86,.78-2.82,.78Zm148.29-11.63c-.68,0-1.38-.13-2.05-.4-5.16-2.09-10.51-3.93-15.88-5.47-2.91-.83-4.59-3.87-3.76-6.77,.83-2.91,3.87-4.59,6.77-3.76,5.74,1.64,11.45,3.61,16.97,5.84,2.8,1.13,4.16,4.33,3.02,7.13-.86,2.13-2.91,3.42-5.08,3.42Zm-106.52-6.25c-2.41,0-4.61-1.6-5.28-4.03-.8-2.92,.92-5.93,3.84-6.73,5.74-1.57,11.64-2.86,17.53-3.82,2.99-.5,5.8,1.54,6.29,4.52,.49,2.98-1.54,5.8-4.52,6.29-5.51,.9-11.03,2.1-16.41,3.57-.48,.13-.97,.19-1.45,.19Zm62.43-4.85c-.2,0-.4-.01-.61-.03-2.22-.24-4.45-.45-6.69-.6-3.36-.23-6.75-.36-10.09-.39-3.02-.02-5.46-2.49-5.44-5.52,.02-3.01,2.47-5.44,5.47-5.44h.04c3.56,.03,7.19,.17,10.76,.41,2.39,.17,4.77,.38,7.14,.64,3.01,.33,5.17,3.04,4.84,6.04-.31,2.8-2.68,4.88-5.44,4.88Z"/>
        <path class="cls-7" d="M2064.03,1019.29c-1.08,0-2.17-.32-3.12-.98-2.29-1.59-4.67-3.16-7.08-4.65-2.57-1.59-3.36-4.97-1.76-7.54,1.59-2.57,4.97-3.36,7.54-1.76,2.57,1.59,5.11,3.27,7.56,4.97,2.48,1.73,3.09,5.14,1.37,7.62-1.06,1.53-2.77,2.35-4.5,2.35Z"/>
      </g>
      <g>
        <path class="cls-7" d="M2133.88,1131.64c-2.67,0-5.01-1.95-5.41-4.67-.42-2.8-.91-5.6-1.47-8.34-.6-2.96,1.31-5.85,4.28-6.46,2.96-.6,5.85,1.31,6.46,4.28,.59,2.93,1.12,5.92,1.56,8.91,.44,2.99-1.62,5.78-4.61,6.22-.27,.04-.54,.06-.81,.06Z"/>
        <path class="cls-7" d="M1958.66,1322.7c-.11,0-.22,0-.34,0l-1.27-.08c-5.43-.38-10.91-1.01-16.27-1.9-2.98-.49-5-3.31-4.51-6.29,.49-2.98,3.3-5,6.29-4.51,5.02,.83,10.15,1.42,15.25,1.78l1.17,.08c3.02,.18,5.32,2.78,5.13,5.8-.18,2.91-2.59,5.14-5.46,5.14Zm27.72-.57c-2.77,0-5.15-2.09-5.44-4.91-.31-3.01,1.87-5.7,4.88-6.01,5.47-.57,10.96-1.43,16.32-2.55,2.96-.62,5.86,1.28,6.48,4.24,.62,2.96-1.27,5.86-4.24,6.48-5.73,1.2-11.6,2.12-17.43,2.73-.19,.02-.38,.03-.57,.03Zm-71.62-8.12c-.59,0-1.19-.09-1.78-.3-5.55-1.9-11.06-4.11-16.38-6.58-2.74-1.27-3.94-4.53-2.67-7.27,1.27-2.74,4.53-3.94,7.27-2.67,4.98,2.3,10.14,4.38,15.33,6.16,2.86,.98,4.39,4.09,3.4,6.96-.78,2.27-2.9,3.7-5.18,3.7Zm115.08-2.47c-2.18,0-4.25-1.32-5.1-3.47-1.11-2.81,.28-5.99,3.09-7.1,5.1-2.01,10.17-4.3,15.04-6.82,2.69-1.39,5.99-.34,7.38,2.35,1.39,2.69,.34,5.99-2.35,7.38-5.21,2.69-10.61,5.15-16.06,7.29-.66,.26-1.34,.38-2,.38Zm39.05-21.8c-1.67,0-3.31-.76-4.39-2.19-1.81-2.42-1.32-5.85,1.1-7.67,4.39-3.29,8.67-6.85,12.7-10.57,2.22-2.05,5.69-1.91,7.74,.31,2.05,2.22,1.91,5.69-.31,7.74-4.31,3.97-8.87,7.77-13.56,11.29-.98,.74-2.14,1.09-3.28,1.09Zm31.89-31.36c-1.17,0-2.35-.38-3.35-1.15-2.39-1.85-2.82-5.29-.97-7.68,3.37-4.34,6.55-8.9,9.45-13.56,1.6-2.56,4.98-3.35,7.54-1.75,2.57,1.6,3.35,4.98,1.75,7.54-3.1,4.97-6.49,9.84-10.09,14.48-1.08,1.39-2.7,2.12-4.33,2.12Zm22.42-38.71c-.69,0-1.4-.13-2.08-.41-2.8-1.15-4.13-4.35-2.98-7.15,2.08-5.07,3.93-10.32,5.48-15.59,.85-2.9,3.89-4.56,6.8-3.71,2.9,.85,4.56,3.9,3.71,6.8-1.66,5.63-3.63,11.23-5.85,16.65-.87,2.12-2.91,3.4-5.07,3.4Zm11.27-43.29c-.22,0-.44-.01-.66-.04-3-.36-5.14-3.09-4.78-6.09,.33-2.74,.6-5.54,.79-8.31,.19-2.7,.31-5.45,.36-8.18,.06-3.02,2.58-5.43,5.58-5.37,3.02,.06,5.43,2.56,5.37,5.58-.06,2.91-.19,5.85-.39,8.73-.21,2.96-.49,5.94-.84,8.87-.33,2.78-2.7,4.82-5.43,4.82Z"/>
        <path class="cls-7" d="M1874.7,1293.86c-1.07,0-2.15-.31-3.09-.96-2.48-1.7-4.94-3.49-7.32-5.31-2.4-1.84-2.85-5.28-1.01-7.68,1.84-2.4,5.28-2.86,7.68-1.01,2.23,1.71,4.53,3.38,6.85,4.97,2.49,1.71,3.13,5.12,1.41,7.61-1.06,1.55-2.78,2.38-4.52,2.38Z"/>
      </g>
      <g>
        <path class="cls-6" d="M1878.91,1241.91c.54,.66,1.44,.91,2.24,.61l22.86-8.41c9.01,6.94,19.19,12.49,30.26,16.3l5.58,23.69c.2,.83,.9,1.45,1.75,1.53l29.07,2.94c.85,.09,1.66-.38,2.02-1.15l10.21-22.09c11.61-1.51,22.7-4.91,32.92-9.9l20.71,12.82c.73,.45,1.66,.39,2.32-.15l22.64-18.47c.66-.54,.91-1.44,.61-2.24l-8.41-22.86c6.94-9.01,12.49-19.19,16.3-30.26l23.69-5.58c.83-.2,1.45-.9,1.53-1.75l2.94-29.07c.09-.85-.38-1.66-1.15-2.02l-22.09-10.21c-1.51-11.61-4.91-22.7-9.9-32.92l12.82-20.71c.45-.73,.39-1.66-.15-2.32l-18.47-22.64c-.54-.66-1.44-.91-2.24-.61l-22.86,8.41c-9.01-6.94-19.19-12.49-30.26-16.3l-5.58-23.69c-.2-.83-.9-1.45-1.75-1.53l-29.07-2.94c-.85-.09-1.66,.38-2.02,1.15l-10.21,22.09c-11.61,1.51-22.7,4.91-32.92,9.9l-20.71-12.82c-.73-.45-1.66-.39-2.32,.15l-22.64,18.47c-.66,.54-.91,1.44-.61,2.24l8.41,22.86c-6.94,9.01-12.49,19.2-16.3,30.27l-23.69,5.58c-.83,.19-1.45,.9-1.53,1.75l-2.94,29.07c-.09,.85,.38,1.66,1.15,2.02l22.09,10.21c1.51,11.61,4.91,22.7,9.9,32.92l-12.82,20.71c-.45,.73-.39,1.66,.15,2.32l18.47,22.63Z"/>
        <path class="cls-7" d="M1969.03,1182.01c-15.85,0-29.77-11.64-32.14-27.77-2.61-17.74,9.69-34.29,27.42-36.91,8.59-1.27,17.16,.89,24.13,6.07,6.97,5.18,11.51,12.76,12.77,21.36,2.61,17.74-9.69,34.29-27.42,36.91h0c-1.6,.24-3.19,.35-4.76,.35Zm3.8-6.85h0Zm-3.74-45.04c-.95,0-1.91,.07-2.86,.21-10.57,1.56-17.9,11.42-16.34,21.99,1.56,10.57,11.43,17.9,21.99,16.34,10.57-1.56,17.9-11.42,16.34-21.99-.76-5.12-3.46-9.64-7.61-12.72-3.38-2.51-7.38-3.83-11.51-3.83Z"/>
        <path class="cls-7" d="M1969.56,1221.75c-2.44,0-4.9-.12-7.38-.37h0c-5.16-.52-10.26-1.59-15.14-3.18-.93-.3-1.52-1.16-1.52-2.08,0-.22,.04-.45,.11-.68,.37-1.15,1.61-1.78,2.76-1.41,4.59,1.49,9.38,2.49,14.24,2.98,37.46,3.81,71.05-23.6,74.84-61.07,.24-2.33,.35-4.65,.35-6.95,0-34.59-26.29-64.33-61.42-67.89-37.46-3.8-71.05,23.6-74.84,61.07-.23,2.31-.35,4.62-.35,6.93,0,10,2.19,19.88,6.44,28.94,.14,.3,.21,.62,.21,.93,0,.82-.47,1.61-1.26,1.98-1.1,.51-2.4,.04-2.91-1.05-4.53-9.64-6.86-20.16-6.86-30.8,0-2.45,.12-4.92,.37-7.37,4.04-39.88,39.77-69.01,79.64-64.99,19.32,1.96,36.71,11.32,48.99,26.36,10.69,13.1,16.38,29.13,16.38,45.81,0,2.48-.13,4.97-.38,7.47-3.79,37.4-35.45,65.36-72.26,65.36Z"/>
      </g>
    </g>
    <g>
      <g>
        <path class="cls-7" d="M2052.06,1012.26c-2.37,0-4.55-1.55-5.25-3.93-.87-2.97-1.6-6.01-2.18-9.04-.56-2.97,1.39-5.84,4.36-6.4,2.97-.57,5.84,1.39,6.4,4.36,.51,2.68,1.15,5.37,1.92,7.99,.85,2.9-.81,5.94-3.71,6.8-.51,.15-1.03,.22-1.54,.22Z"/>
        <path class="cls-7" d="M2049.08,976.68c-.21,0-.42-.01-.64-.04-3-.35-5.16-3.07-4.81-6.07,.68-5.88,1.92-11.71,3.67-17.33,.9-2.89,3.97-4.49,6.86-3.6,2.89,.9,4.5,3.97,3.6,6.86-1.55,4.97-2.64,10.13-3.25,15.33-.32,2.79-2.69,4.85-5.43,4.85Zm15.35-40.65c-1.08,0-2.17-.32-3.12-.98-2.48-1.73-3.1-5.14-1.37-7.62,3.37-4.84,7.21-9.4,11.43-13.54,2.16-2.12,5.62-2.09,7.74,.07,2.12,2.16,2.09,5.62-.07,7.74-3.73,3.67-7.13,7.7-10.11,11.98-1.06,1.53-2.77,2.35-4.5,2.35Zm32.72-28.61c-1.99,0-3.91-1.09-4.88-2.98-1.38-2.69-.32-5.99,2.37-7.37,5.26-2.7,10.8-4.92,16.46-6.58,2.9-.85,5.95,.8,6.8,3.7,.86,2.9-.8,5.95-3.7,6.8-5,1.47-9.9,3.43-14.55,5.82-.8,.41-1.65,.61-2.5,.61Zm58.93-7.98c-.36,0-.74-.04-1.11-.11-3.68-.76-7.47-1.27-11.24-1.53-1.46-.1-2.91-.16-4.36-.19-3.02-.05-5.43-2.55-5.38-5.57,.05-3.02,2.6-5.47,5.57-5.38,1.63,.03,3.27,.1,4.92,.21,4.26,.29,8.53,.88,12.69,1.73,2.96,.61,4.87,3.5,4.26,6.47-.53,2.59-2.81,4.38-5.36,4.38Z"/>
        <path class="cls-7" d="M2188.96,913.55c-1.08,0-2.17-.32-3.12-.98-2.25-1.56-4.59-3.03-6.97-4.36-2.64-1.48-3.58-4.81-2.11-7.45,1.47-2.64,4.81-3.59,7.45-2.11,2.69,1.5,5.34,3.16,7.88,4.92,2.48,1.72,3.1,5.14,1.37,7.62-1.06,1.53-2.77,2.35-4.5,2.35Z"/>
      </g>
      <g>
        <path class="cls-7" d="M2226.95,977.87c-2.77,0-5.15-2.1-5.44-4.92-.28-2.73-.7-5.46-1.24-8.13-.6-2.96,1.31-5.85,4.28-6.46,2.97-.59,5.85,1.31,6.46,4.28,.61,3.02,1.08,6.11,1.4,9.19,.31,3.01-1.88,5.7-4.89,6-.19,.02-.38,.03-.56,.03Z"/>
        <path class="cls-7" d="M2131.51,1076.3c-.13,0-.27,0-.4-.01-5.81-.42-11.59-1.37-17.19-2.83-2.93-.76-4.68-3.75-3.92-6.68,.76-2.93,3.76-4.68,6.68-3.92,4.95,1.29,10.07,2.13,15.22,2.5,3.02,.22,5.29,2.84,5.07,5.86-.21,2.88-2.61,5.08-5.46,5.08Zm26.53-2.03c-2.49,0-4.75-1.71-5.33-4.25-.68-2.95,1.16-5.89,4.11-6.57,5-1.15,9.92-2.78,14.63-4.83,2.77-1.21,6,.06,7.21,2.83,1.21,2.77-.06,6-2.83,7.21-5.32,2.32-10.89,4.16-16.55,5.46-.41,.09-.83,.14-1.24,.14Zm38.14-19.29c-1.54,0-3.08-.65-4.16-1.91-1.97-2.3-1.7-5.75,.59-7.72,3.9-3.35,7.52-7.07,10.74-11.06,1.9-2.35,5.35-2.72,7.7-.82,2.35,1.9,2.72,5.35,.82,7.7-3.64,4.51-7.72,8.72-12.13,12.5-1.03,.89-2.3,1.32-3.56,1.32Zm24.88-34.75c-.67,0-1.36-.13-2.03-.39-2.81-1.12-4.18-4.3-3.06-7.11,1.9-4.76,3.37-9.74,4.36-14.78,.58-2.97,3.47-4.89,6.43-4.31,2.97,.58,4.9,3.46,4.31,6.43-1.12,5.7-2.78,11.33-4.93,16.72-.85,2.14-2.91,3.45-5.09,3.45Z"/>
        <path class="cls-7" d="M2090.76,1063.11c-.99,0-1.98-.27-2.88-.83-2.61-1.62-5.19-3.4-7.64-5.28-2.4-1.84-2.85-5.28-1.02-7.68,1.84-2.4,5.27-2.86,7.68-1.01,2.17,1.67,4.45,3.24,6.76,4.67,2.57,1.59,3.36,4.97,1.76,7.54-1.04,1.67-2.83,2.59-4.66,2.59Z"/>
      </g>
      <g>
        <path class="cls-6" d="M2089.63,1030.47c.29,.35,.77,.49,1.2,.33l12.27-4.51c4.84,3.72,10.3,6.7,16.24,8.75l2.99,12.71c.1,.45,.48,.78,.94,.82l15.6,1.58c.46,.05,.89-.2,1.08-.62l5.48-11.86c6.23-.81,12.18-2.63,17.66-5.31l11.11,6.88c.39,.24,.89,.21,1.24-.08l12.15-9.91c.35-.29,.49-.77,.33-1.2l-4.51-12.27c3.72-4.84,6.7-10.3,8.75-16.24l12.71-2.99c.45-.1,.78-.48,.82-.94l1.58-15.6c.05-.46-.2-.89-.62-1.08l-11.86-5.48c-.81-6.23-2.63-12.18-5.31-17.66l6.88-11.11c.24-.39,.21-.89-.08-1.24l-9.91-12.15c-.29-.36-.77-.49-1.2-.33l-12.27,4.51c-4.84-3.72-10.3-6.7-16.24-8.75l-2.99-12.71c-.1-.45-.48-.78-.94-.82l-15.6-1.58c-.46-.05-.89,.2-1.08,.62l-5.48,11.86c-6.23,.81-12.18,2.63-17.66,5.31l-11.11-6.88c-.39-.24-.89-.21-1.24,.08l-12.15,9.91c-.35,.29-.49,.77-.33,1.2l4.51,12.27c-3.72,4.84-6.7,10.3-8.75,16.24l-12.71,2.99c-.45,.1-.78,.48-.82,.94l-1.58,15.6c-.05,.46,.2,.89,.62,1.08l11.86,5.48c.81,6.23,2.63,12.18,5.31,17.66l-6.88,11.11c-.24,.39-.21,.89,.08,1.24l9.91,12.15Z"/>
        <path class="cls-7" d="M2137.99,1001.37c-9.99,0-18.76-7.33-20.26-17.5-1.65-11.18,6.11-21.61,17.29-23.26,5.42-.8,10.82,.56,15.21,3.82,4.39,3.27,7.25,8.04,8.05,13.46,1.65,11.18-6.11,21.61-17.28,23.26-1.01,.15-2.01,.22-3,.22Zm.03-27.84c-.36,0-.72,.03-1.09,.08-4.01,.59-6.79,4.33-6.2,8.34,.59,4.01,4.33,6.78,8.34,6.2,1.94-.29,3.66-1.31,4.83-2.89s1.66-3.51,1.37-5.46c-.29-1.94-1.31-3.66-2.89-4.83-1.28-.95-2.8-1.45-4.37-1.45Z"/>
        <path class="cls-7" d="M2138.27,1020.67c-1.34,0-2.7-.07-4.06-.21h0c-.55-.06-1.09-.12-1.64-.2-2.28-.32-4.53-.84-6.7-1.55-.93-.3-1.52-1.16-1.52-2.08,0-.22,.04-.45,.11-.68,.37-1.15,1.61-1.78,2.76-1.41,2.4,.78,4.9,1.3,7.43,1.56h0c12.52,1.27,24.23-4.15,31.53-13.35,3.79-4.77,6.4-10.56,7.32-16.97,.07-.51,.14-1.03,.19-1.55,.12-1.22,.18-2.43,.18-3.62,0-18.05-13.71-33.57-32.05-35.42-19.55-1.97-37.07,12.31-39.05,31.86-.12,1.21-.18,2.41-.18,3.62,0,5.22,1.14,10.37,3.36,15.1,.14,.3,.21,.62,.21,.93,0,.82-.47,1.61-1.26,1.98-1.1,.51-2.4,.04-2.91-1.05-2.49-5.31-3.78-11.1-3.78-16.96,0-1.35,.07-2.71,.2-4.06,2.22-21.95,21.89-38,43.85-35.78,20.59,2.09,35.98,19.51,35.99,39.78,0,1.35-.07,2.7-.21,4.07-2.09,20.59-19.52,35.99-39.79,35.99Z"/>
      </g>
    </g>
  </g>
  <g>
    <g>
      <g>
        <g class="cls-16">
          <ellipse class="cls-7" cx="1136.64" cy="290.76" rx="159.13" ry="156.26" transform="translate(482.84 1264.94) rotate(-70.48)"/>
        </g>
        <path class="cls-40" d="M1300.52,348.85c32.67-92.17-14.22-192.9-104.73-224.98-90.51-32.08-190.37,16.63-223.04,108.8-32.67,92.17,14.22,192.9,104.73,224.98,90.51,32.08,190.37-16.63,223.04-108.8Zm-303.69-107.64c27.87-78.63,113.06-120.19,190.27-92.82,77.21,27.37,117.21,113.3,89.34,191.93-27.87,78.63-113.06,120.19-190.27,92.82-77.21-27.37-117.21-113.3-89.34-191.93Z"/>
        <path class="cls-7" d="M1235.82,420.96c-.32,0-.64-.14-.86-.41-.38-.47-.3-1.16,.18-1.54,24.27-19.26,42.63-45.02,53.08-74.52,22.42-63.24,5.15-132.62-44-176.75,0,0,0,0,0,0-8.34-7.49-17.5-14.09-27.22-19.64-.53-.3-.71-.97-.41-1.49,.3-.52,.97-.71,1.49-.41,9.86,5.62,19.15,12.32,27.61,19.91h0c49.81,44.72,67.31,115.03,44.6,179.11-10.59,29.88-29.19,55.99-53.78,75.5-.2,.16-.44,.24-.68,.24Zm-51.68-287c-.1,0-.21-.01-.31-.05-3.93-1.18-7.95-2.22-11.95-3.08-.59-.13-.97-.71-.84-1.3,.13-.59,.71-.97,1.3-.84,4.05,.88,8.13,1.93,12.11,3.13,.58,.17,.91,.78,.73,1.36-.14,.47-.58,.78-1.05,.78Z"/>
      </g>
      <g>
        <path class="cls-36" d="M993.33,367.63l-307.16,152.74c-12.88,6.41-17.58,22.43-10.19,34.77l1.21,2.03c6.54,10.92,20.72,14.44,31.6,7.83l294.78-178.99-10.24-18.38Z"/>
        <path class="cls-7" d="M697.11,561.68c-.08,0-.16,0-.24-.03-12.95-2.9-16.68-9.93-17.52-15.31-1.24-7.87,2.91-15.77,10.3-19.66l36.77-19.34c.54-.28,1.2-.08,1.48,.46,.28,.54,.08,1.2-.46,1.48l-36.77,19.34c-6.57,3.46-10.25,10.44-9.16,17.39,1.08,6.86,6.41,11.4,15.84,13.52,.59,.13,.96,.72,.83,1.31-.11,.51-.57,.86-1.07,.86Z"/>
        <path class="cls-7" d="M738.26,503.44c-.39,0-.77-.21-.97-.59-.28-.54-.08-1.2,.46-1.48l4.77-2.51c.54-.28,1.2-.08,1.48,.46,.28,.54,.08,1.2-.46,1.48l-4.77,2.51c-.16,.09-.34,.13-.51,.13Z"/>
      </g>
    </g>
    <polygon class="cls-37" points="1230.97 202.77 1203.24 180.31 1137.75 261.15 1072.25 180.31 1044.53 202.77 1114.79 289.49 1044.53 376.21 1072.25 398.67 1137.75 317.83 1203.24 398.67 1230.97 376.21 1160.71 289.49 1230.97 202.77"/>
  </g>
  <g>
    <path class="cls-7" d="M1197.53,575.14l-6.54-.44h-.02c-1.29-.09-2.27-1.2-2.18-2.5,.09-1.29,1.2-2.27,2.49-2.18,.05,0,.11,0,.16,.02l6.54,.88c1.16,.16,1.98,1.22,1.82,2.39-.15,1.11-1.13,1.91-2.24,1.83h-.03Z"/>
    <path class="cls-7" d="M1175.74,573.9l-6.54-.27h-.03c-1.65-.07-2.93-1.46-2.86-3.12,.07-1.65,1.46-2.93,3.11-2.86,.05,0,.11,0,.15,.01l6.57,.61c1.55,.14,2.69,1.52,2.55,3.07-.14,1.5-1.43,2.62-2.92,2.56h-.04Z"/>
    <path class="cls-7" d="M1153.94,573.25l-6.54-.05h-.04c-1.96-.01-3.54-1.62-3.53-3.58,.01-1.96,1.62-3.54,3.58-3.53,.06,0,.13,0,.18,0l6.6,.39c1.87,.11,3.29,1.71,3.18,3.58-.11,1.81-1.61,3.2-3.4,3.19h-.05Z"/>
    <path class="cls-7" d="M1132.16,573.36l-6.53,.15h-.04c-2.25,.05-4.12-1.74-4.17-3.99-.05-2.25,1.74-4.12,3.99-4.17,.05,0,.11,0,.16,0l6.61,.12c2.18,.04,3.92,1.84,3.88,4.02-.04,2.13-1.75,3.83-3.85,3.88h-.05Z"/>
    <path class="cls-7" d="M1110.42,574.07l-6.51,.36h-.05c-2.45,.14-4.55-1.74-4.69-4.19-.14-2.45,1.74-4.55,4.19-4.69,.04,0,.11,0,.15,0l6.62-.15c2.39-.05,4.38,1.85,4.43,4.24,.05,2.34-1.77,4.29-4.09,4.43h-.06Z"/>
    <path class="cls-7" d="M1088.73,575.56l-6.5,.6h-.04c-2.65,.25-4.99-1.7-5.24-4.34-.25-2.65,1.7-4.99,4.35-5.24,.05,0,.11,0,.16-.01l6.6-.39c2.59-.15,4.82,1.82,4.97,4.42,.15,2.54-1.74,4.72-4.25,4.96h-.06Z"/>
    <path class="cls-7" d="M1067.09,577.79l-6.48,.79h-.04c-2.84,.35-5.42-1.67-5.77-4.51s1.68-5.42,4.52-5.77c.05,0,.12-.01,.17-.02l6.59-.58c2.79-.25,5.25,1.82,5.5,4.61,.24,2.73-1.73,5.14-4.43,5.48h-.05Z"/>
    <path class="cls-7" d="M1045.52,580.62l-6.46,.92h-.05c-2.99,.43-5.76-1.64-6.18-4.63-.43-2.99,1.65-5.76,4.64-6.18,.02,0,.06,0,.08-.01l6.57-.84c2.97-.38,5.68,1.72,6.06,4.69,.38,2.94-1.68,5.63-4.6,6.05h-.05Z"/>
    <path class="cls-7" d="M1024.05,583.93l-6.42,1.13h-.05c-3.06,.55-5.98-1.5-6.51-4.56-.54-3.06,1.51-5.98,4.57-6.51,.02,0,.06-.01,.08-.01l6.54-1.05c3.04-.49,5.9,1.58,6.39,4.62,.48,3.01-1.54,5.85-4.54,6.38h-.06Z"/>
    <path class="cls-7" d="M1002.71,587.93l-6.37,1.35h-.06c-3.13,.67-6.2-1.32-6.86-4.45-.66-3.13,1.34-6.2,4.46-6.86,.02,0,.07-.01,.08-.02l6.51-1.28c3.11-.61,6.12,1.42,6.73,4.52,.6,3.08-1.38,6.07-4.44,6.72h-.07Z"/>
    <path class="cls-7" d="M981.55,592.69l-6.31,1.58-.07,.02c-3.18,.8-6.41-1.13-7.21-4.32-.8-3.18,1.13-6.41,4.32-7.21,.02,0,.07-.02,.08-.02l6.46-1.52c3.17-.75,6.34,1.22,7.09,4.39,.74,3.14-1.18,6.28-4.3,7.07l-.07,.02Z"/>
    <path class="cls-7" d="M960.62,598.26l-6.23,1.84-.07,.02c-3.23,.95-6.63-.9-7.58-4.13-.95-3.23,.9-6.63,4.13-7.58,.02,0,.07-.02,.09-.02l6.4-1.79c3.22-.9,6.56,.98,7.46,4.21,.89,3.19-.95,6.5-4.12,7.43l-.08,.02Z"/>
    <path class="cls-7" d="M939.96,604.69c-2.04,.72-4.1,1.37-6.16,2.04l-.08,.03c-3.25,1.05-6.74-.74-7.79-3.99-1.03-3.21,.69-6.65,3.86-7.75,2.1-.73,4.19-1.46,6.3-2.14,3.27-1.04,6.77,.76,7.81,4.03,1.02,3.21-.7,6.64-3.85,7.75l-.09,.03Z"/>
    <path class="cls-7" d="M919.43,611.47l-6.2,1.96-.09,.03c-2.82,.89-5.83-.67-6.72-3.49-.82-2.6,.44-5.35,2.85-6.47l6.05-2.81c2.9-1.35,6.33-.09,7.68,2.81,1.35,2.9,.09,6.33-2.81,7.68-.22,.1-.44,.19-.66,.26l-.11,.03Z"/>
    <path class="cls-7" d="M898.86,618.36l-6.11,2.26-.07,.02c-2.01,.74-4.24-.28-4.99-2.29-.68-1.84,.12-3.87,1.81-4.77l5.86-3.14c2.11-1.13,4.74-.34,5.88,1.77,1.13,2.11,.34,4.74-1.77,5.88-.17,.09-.34,.17-.52,.24l-.08,.03Z"/>
    <path class="cls-7" d="M878.77,626.62l-5.85,2.88-.05,.02c-1.49,.73-3.29,.12-4.02-1.37-.71-1.44-.15-3.19,1.24-3.96l5.8-3.2c1.53-.84,3.45-.29,4.29,1.24,.84,1.53,.29,3.45-1.24,4.29-.04,.02-.08,.04-.12,.06l-.06,.03Z"/>
    <path class="cls-7" d="M859.62,636.85l-5.6,3.33-.05,.03c-1.36,.81-3.11,.36-3.91-1-.8-1.34-.37-3.08,.96-3.9l5.65-3.46c1.37-.84,3.15-.41,3.99,.96,.84,1.37,.41,3.15-.96,3.99,0,0-.01,0-.02,.01l-.06,.04Z"/>
    <path class="cls-7" d="M841.21,648.38l-5.37,3.7-.05,.03c-1.23,.85-2.92,.54-3.77-.69-.84-1.22-.54-2.89,.67-3.75l5.41-3.83c1.24-.88,2.96-.59,3.84,.66,.88,1.24,.59,2.96-.66,3.84,0,0-.01,0-.02,.01l-.06,.04Z"/>
    <path class="cls-7" d="M823.64,661.13l-5.09,4.07-.04,.04c-1.11,.89-2.72,.71-3.61-.4-.88-1.1-.71-2.7,.38-3.59l5.12-4.21c1.11-.92,2.76-.75,3.67,.36,.92,1.11,.75,2.76-.36,3.68,0,0-.01,0-.02,.01l-.06,.04Z"/>
    <path class="cls-7" d="M807.07,675.15l-4.75,4.46-.04,.04c-1,.94-2.58,.89-3.52-.11-.94-1-.9-2.58,.11-3.52l4.82-4.54c1.01-.95,2.59-.9,3.53,.1,.95,1,.9,2.59-.1,3.53h0s-.04,.04-.04,.04Z"/>
    <path class="cls-7" d="M791.6,690.4l-4.43,4.78-.03,.04c-.93,1-2.49,1.06-3.49,.13-1-.93-1.07-2.49-.14-3.49l4.49-4.87c.93-1.01,2.5-1.07,3.5-.14,1.01,.93,1.07,2.5,.14,3.5h0s-.03,.04-.03,.04Z"/>
    <path class="cls-7" d="M777.21,706.68l-4.11,5.07-.03,.04c-.85,1.05-2.4,1.21-3.45,.36-1.05-.85-1.22-2.39-.36-3.45l4.16-5.15c.85-1.06,2.4-1.22,3.46-.37,1.06,.85,1.22,2.4,.37,3.46h0s-.03,.04-.03,.04Z"/>
    <path class="cls-7" d="M763.9,723.88l-3.78,5.32-.03,.04c-.79,1.11-2.32,1.37-3.43,.58-1.11-.79-1.37-2.32-.58-3.43h0s3.84-5.39,3.84-5.39c.79-1.11,2.32-1.36,3.42-.58,1.11,.79,1.36,2.32,.58,3.42l-.02,.03Z"/>
    <path class="cls-7" d="M751.68,741.88l-3.46,5.54-.02,.04c-.72,1.16-2.24,1.51-3.4,.78-1.16-.72-1.51-2.24-.78-3.4h0s3.51-5.61,3.51-5.61c.72-1.15,2.24-1.5,3.4-.78,1.15,.72,1.5,2.24,.78,3.4l-.02,.03Z"/>
    <path class="cls-7" d="M740.51,760.56l-3.14,5.72-.02,.04c-.66,1.2-2.16,1.64-3.36,.98-1.2-.66-1.64-2.16-.98-3.36h0s3.19-5.79,3.19-5.79c.66-1.2,2.16-1.63,3.36-.97,1.2,.66,1.63,2.16,.97,3.36l-.02,.03Z"/>
    <path class="cls-7" d="M730.4,779.83l-2.83,5.89-.02,.04c-.59,1.24-2.08,1.76-3.32,1.16-1.24-.59-1.76-2.08-1.16-3.32h0s2.87-5.96,2.87-5.96c.6-1.23,2.08-1.75,3.31-1.16,1.23,.6,1.75,2.08,1.16,3.31l-.02,.03Z"/>
    <path class="cls-7" d="M721.32,799.62l-2.52,6.03v.03c-.55,1.27-2.01,1.87-3.28,1.34s-1.87-1.99-1.34-3.26h0s2.56-6.1,2.56-6.1c.53-1.27,1.99-1.86,3.26-1.33,1.27,.53,1.86,1.99,1.33,3.26v.03Z"/>
    <path class="cls-7" d="M713.26,819.85l-2.22,6.15v.04c-.48,1.3-1.91,1.97-3.21,1.5-1.3-.47-1.97-1.9-1.5-3.2h0s2.25-6.22,2.25-6.22c.47-1.3,1.9-1.97,3.2-1.5,1.3,.47,1.97,1.9,1.5,3.2v.03Z"/>
    <path class="cls-7" d="M706.23,840.47l-1.91,6.25v.04c-.42,1.33-1.82,2.07-3.14,1.67-1.33-.41-2.07-1.81-1.67-3.13h0s1.94-6.32,1.94-6.32c.41-1.32,1.81-2.07,3.13-1.66,1.32,.41,2.07,1.81,1.66,3.13v.03Z"/>
    <path class="cls-7" d="M700.22,861.4l-1.6,6.33v.04c-.35,1.35-1.72,2.16-3.07,1.82-1.35-.34-2.16-1.71-1.82-3.06h0s1.63-6.41,1.63-6.41c.34-1.35,1.71-2.16,3.06-1.82,1.35,.34,2.16,1.71,1.82,3.06v.03Z"/>
    <path class="cls-7" d="M695.23,882.6l-1.29,6.41v.04c-.28,1.37-1.62,2.25-2.98,1.98-1.37-.28-2.25-1.61-1.98-2.98h0s1.31-6.48,1.31-6.48c.28-1.37,1.61-2.25,2.98-1.97,1.37,.28,2.25,1.61,1.97,2.97v.03Z"/>
    <path class="cls-7" d="M691.29,904.02l-.97,6.46v.04c-.21,1.38-1.51,2.34-2.89,2.13-1.38-.21-2.34-1.5-2.13-2.88h0s.99-6.54,.99-6.54c.21-1.38,1.5-2.33,2.88-2.12,1.38,.21,2.33,1.5,2.12,2.88v.04Z"/>
    <path class="cls-7" d="M688.42,925.6l-.65,6.5v.04c-.14,1.4-1.39,2.42-2.79,2.28-1.4-.14-2.42-1.39-2.28-2.78h0s.66-6.58,.66-6.58c.14-1.4,1.39-2.41,2.78-2.27,1.4,.14,2.41,1.39,2.27,2.78v.04Z"/>
    <path class="cls-7" d="M686.97,947.2l.04,6.49v.07c0,1.41-1.13,2.56-2.54,2.57-1.41,0-2.56-1.13-2.57-2.54h0s-.03-6.65-.03-6.65c0-1.41,1.13-2.56,2.54-2.56,1.41,0,2.55,1.13,2.56,2.54v.08Z"/>
    <path class="cls-7" d="M687.77,968.86l.57,6.49v.05c.13,1.41-.91,2.65-2.32,2.78-1.41,.12-2.65-.92-2.78-2.33h0s-.58-6.6-.58-6.6c-.12-1.41,.92-2.65,2.33-2.77,1.41-.12,2.65,.92,2.77,2.33v.05Z"/>
    <path class="cls-7" d="M690.17,990.46l.98,6.45v.04c.22,1.4-.75,2.71-2.15,2.93-1.4,.21-2.71-.75-2.93-2.16h0s-.98-6.54-.98-6.54c-.21-1.4,.75-2.71,2.16-2.92,1.4-.21,2.71,.75,2.92,2.16v.04Z"/>
    <path class="cls-7" d="M693.84,1011.9l1.32,6.39v.04c.3,1.4-.6,2.76-1.99,3.05-1.4,.29-2.76-.61-3.05-2h0s-1.33-6.48-1.33-6.48c-.29-1.39,.61-2.76,2-3.04,1.39-.29,2.76,.61,3.04,2v.04Z"/>
    <path class="cls-7" d="M698.64,1033.14l1.64,6.32v.04c.37,1.38-.46,2.8-1.84,3.16-1.38,.36-2.8-.47-3.16-1.85h0s-1.66-6.4-1.66-6.4c-.36-1.38,.47-2.79,1.85-3.15,1.38-.36,2.79,.47,3.15,1.85v.03Z"/>
    <path class="cls-7" d="M704.48,1054.11l1.95,6.23v.04c.44,1.37-.32,2.83-1.69,3.26-1.37,.43-2.83-.33-3.26-1.7h0s-1.97-6.31-1.97-6.31c-.43-1.37,.33-2.82,1.7-3.25,1.37-.43,2.82,.33,3.25,1.7v.03Z"/>
    <path class="cls-7" d="M711.35,1074.77l2.26,6.13v.04c.51,1.35-.18,2.85-1.53,3.35-1.35,.5-2.85-.19-3.35-1.54h0s-2.28-6.2-2.28-6.2c-.5-1.35,.19-2.85,1.54-3.34,1.35-.5,2.85,.19,3.34,1.54v.04Z"/>
    <path class="cls-7" d="M719.25,1095.05l2.57,6,.02,.04c.57,1.33-.04,2.87-1.37,3.44-1.33,.57-2.87-.05-3.44-1.37h0s-2.6-6.08-2.6-6.08c-.57-1.33,.05-2.86,1.38-3.43,1.33-.57,2.86,.05,3.43,1.38v.03Z"/>
    <path class="cls-7" d="M728.21,1114.88l2.9,5.85,.02,.04c.65,1.31,.11,2.91-1.2,3.56-1.31,.65-2.91,.11-3.56-1.2h0s-2.92-5.95-2.92-5.95c-.64-1.31-.1-2.9,1.21-3.54,1.31-.64,2.9-.1,3.54,1.21l.02,.03Z"/>
    <path class="cls-7" d="M738.25,1134.17l3.23,5.67,.02,.04c.74,1.29,.28,2.94-1.01,3.67-1.29,.74-2.94,.28-3.67-1.01h0s-3.25-5.77-3.25-5.77c-.73-1.29-.27-2.93,1.02-3.66,1.29-.73,2.93-.27,3.66,1.02l.02,.03Z"/>
    <path class="cls-7" d="M749.4,1152.83l3.57,5.46,.03,.04c.83,1.26,.47,2.96-.79,3.78-1.26,.83-2.96,.47-3.78-.79h0s-3.6-5.56-3.6-5.56c-.82-1.26-.46-2.95,.8-3.76,1.26-.82,2.95-.46,3.76,.8l.02,.04Z"/>
    <path class="cls-7" d="M761.69,1170.74l3.91,5.21,.03,.05c.92,1.22,.67,2.96-.55,3.88-1.22,.92-2.96,.67-3.88-.55h0s-3.96-5.32-3.96-5.32c-.91-1.22-.66-2.95,.56-3.86,1.22-.91,2.95-.66,3.86,.56l.03,.04Z"/>
    <path class="cls-7" d="M775.15,1187.76l4.27,4.91,.04,.05c1.02,1.17,.89,2.95-.28,3.96-1.17,1.02-2.95,.89-3.96-.28h0s-4.33-5.03-4.33-5.03c-1.01-1.17-.88-2.94,.29-3.95,1.17-1.01,2.94-.88,3.95,.29l.03,.04Z"/>
    <path class="cls-7" d="M789.81,1203.75l4.63,4.57,.05,.05c1.12,1.1,1.13,2.91,.03,4.03s-2.91,1.13-4.03,.03h0s-4.71-4.69-4.71-4.69c-1.11-1.1-1.12-2.9-.01-4.01,1.1-1.11,2.9-1.12,4.01-.01l.04,.04Z"/>
    <path class="cls-7" d="M805.65,1218.53l4.98,4.17,.06,.05c1.22,1.02,1.38,2.84,.36,4.07-1.02,1.22-2.84,1.38-4.07,.36h0s-5.08-4.29-5.08-4.29c-1.21-1.02-1.37-2.84-.34-4.05,1.02-1.21,2.84-1.37,4.05-.34l.05,.04Z"/>
    <path class="cls-7" d="M822.65,1231.94l5.32,3.73,.06,.04c1.32,.93,1.64,2.75,.71,4.07-.93,1.32-2.75,1.64-4.07,.71h0s-5.43-3.84-5.43-3.84c-1.31-.93-1.63-2.75-.7-4.06,.93-1.31,2.75-1.63,4.06-.7l.05,.04Z"/>
    <path class="cls-7" d="M840.74,1243.8l5.62,3.24,.07,.04c1.42,.82,1.91,2.63,1.09,4.05-.82,1.42-2.63,1.91-4.05,1.09h0s-5.75-3.34-5.75-3.34c-1.41-.82-1.89-2.62-1.07-4.03,.82-1.41,2.62-1.89,4.03-1.07l.06,.03Z"/>
    <path class="cls-7" d="M859.82,1253.99l5.89,2.71,.07,.03c1.51,.69,2.16,2.48,1.47,3.98-.69,1.51-2.48,2.16-3.98,1.47h0s-6.03-2.81-6.03-2.81c-1.5-.7-2.15-2.47-1.45-3.97,.7-1.5,2.47-2.15,3.97-1.45l.06,.03Z"/>
    <path class="cls-7" d="M879.74,1262.41l6.11,2.17,.08,.03c1.58,.56,2.41,2.3,1.85,3.88-.56,1.58-2.3,2.41-3.88,1.85h-.01s-6.26-2.25-6.26-2.25c-1.57-.56-2.39-2.3-1.83-3.87,.56-1.57,2.3-2.39,3.87-1.83l.07,.02Z"/>
    <path class="cls-7" d="M900.34,1268.97l6.29,1.61,.08,.02c1.66,.42,2.66,2.11,2.24,3.77-.42,1.66-2.11,2.66-3.77,2.24h-.02s-6.43-1.69-6.43-1.69c-1.65-.43-2.63-2.12-2.2-3.76,.43-1.64,2.1-2.63,3.74-2.21l.08,.02Z"/>
    <path class="cls-7" d="M921.44,1273.68l6.4,1.06h.08c1.73,.3,2.89,1.93,2.6,3.66-.29,1.73-1.92,2.89-3.64,2.6h-.02s-6.55-1.13-6.55-1.13c-1.71-.29-2.86-1.92-2.57-3.63,.29-1.71,1.91-2.85,3.62-2.57h.08Z"/>
    <path class="cls-7" d="M942.88,1276.61l6.47,.54h.07c1.78,.16,3.1,1.72,2.95,3.5-.15,1.78-1.71,3.1-3.49,2.95h-.02s-6.62-.6-6.62-.6c-1.77-.16-3.07-1.72-2.91-3.49,.16-1.76,1.71-3.06,3.47-2.91h.08Z"/>
    <path class="cls-7" d="M964.5,1277.85l3.38,.05h.04c1.81,.03,3.26,1.52,3.24,3.33-.02,1.81-1.52,3.26-3.33,3.24h-.02s-3.45-.07-3.45-.07c-1.81-.04-3.25-1.53-3.21-3.34,.04-1.8,1.52-3.24,3.32-3.21h.04Z"/>
  </g>
  <g>
    <g>
      <path class="cls-35" d="M824.96,1498.21s-4.56,7.19-5.71,27.33c-.11,1.88,1.38,3.47,3.26,3.47h35.69c1.44,0,2.46-1.41,2-2.77-2.09-6.19-8.41-21.28-22.52-29.9l-12.71,1.87Z"/>
      <path class="cls-38" d="M823.41,1484.56l2.02,16.92c.17,1.46,1.32,2.63,2.78,2.8,1.95,.22,4.79,.38,7.55-.07,2.51-.41,4.31-2.65,4.31-5.19v-16.34l-16.65,1.88Z"/>
      <path class="cls-48" d="M913.26,1496.34s-6.83,10.62-6.68,25.19c.03,3.43,2.91,6.17,6.34,6.17h55.43c2.6,0,3.65-3.34,1.52-4.83-10.49-7.36-31.1-21.12-46.01-26.53h-10.6Z"/>
      <path class="cls-56" d="M907.55,1478.06l4.31,20.9c.48,2.34,2.77,3.91,5.1,3.39,1.42-.32,3.09-.92,4.87-2.04,1.7-1.06,2.56-3.08,2.21-5.05l-4.45-25.32-12.03,8.12Z"/>
      <path class="cls-49" d="M831.32,1187.45s-14.97,13.2-17.79,29.08c-2.82,15.88,7.98,273.95,7.98,273.95,0,0,14.97,2.49,22.69-2.19,0,0,9.15-167.49,16.11-206.19,0,0,36.48,173.5,46.59,204.84,0,0,14.42,1.75,19.07-.99,0,0-9.56-224.9-21.56-264.88l-73.09-33.62Z"/>
      <path class="cls-47" d="M859.87,1276.67c-.73,0-1.4-.49-1.59-1.23l-6.2-23.77-13.2-8.47c-.76-.49-.99-1.51-.5-2.27,.49-.76,1.51-.99,2.27-.5l13.74,8.81c.35,.22,.6,.57,.7,.97l6.36,24.39c.23,.88-.3,1.77-1.18,2-.14,.04-.28,.05-.42,.05Z"/>
      <path class="cls-57" d="M979.04,1038.33c-63.02-5.23-79.49,7.81-79.49,7.81l30.28,47.81s61.92-1.22,106.29-35.42c-8.3-8.94-14.07-18.83-17.77-26.52-11.44,4.75-24.62,7.54-39.32,6.32Z"/>
      <path class="cls-58" d="M1077.73,945.83c-.08-2.02-2.82-2.57-3.68-.74l-8.04,17.16c-1.55,3.32-2.05,7.03-1.43,10.64l2.82,9.99c.84,4.87-.43,9.86-3.52,13.72-7.39,9.24-23.12,26.11-45.52,35.41,3.7,7.7,9.47,17.58,17.77,26.52,16.28-12.55,30.2-29.53,37.83-52.52,3.65-1.12,6.1-4.56,5.95-8.38l-2.18-51.79Z"/>
      <path class="cls-60" d="M999.79,1066.04c-22.18-23.9-64.44-34.7-88.91-39.14-10.72-1.94-21.28,4.02-25.08,14.23-11.01,29.6-40.95,106.59-46.76,119.83-4.76,10.86-9.73,21.46-12.89,28.09-1.89,3.96-.24,8.7,3.71,10.6,20.58,9.92,57.62,21.15,72.64,25.53,3.3,.96,6.59-1.52,6.59-4.96,0-2.92,.79-5.78,2.29-8.28l56.87-94.77c35.44,39.3,66.48,42.89,90.33,34.29-4.01-12.39-6.63-24.81-7.89-37.24-35.23-6.03-50.91-48.18-50.91-48.18Z"/>
      <path class="cls-62" d="M1118.8,1101.63l-9.27-13.06c-20.96,18.21-44.75,28.07-58.83,25.65,1.26,12.44,3.88,24.85,7.89,37.24,31.41-11.33,60.21-49.83,60.21-49.83Z"/>
      <path class="cls-61" d="M1109.53,1088.57l20.75,29.23,34.71,14.88c-.54-5.56-21.68-23.06-21.68-23.06,0,0-13.72-24.75-18.34-30.76-3.83-4.99-10.45,1.24-12.58,3.5-.43,.46-.68,.75-.68,.75l-2.18,5.46Z"/>
      <path class="cls-59" d="M944.53,983l-18.9,46.11s21.71,15.03,39.18,13.6l9.43-41.46-29.72-18.25Z"/>
      <g>
        <path class="cls-53" d="M964.72,945.67s26.08,23.25,27.58,40.21c1.5,16.96-19.51,34.08-46.07,26.91l-27.48-39.2,45.97-27.92Z"/>
        <path class="cls-51" d="M941.69,991.21c.83-.66,.88-1.9,.09-2.61-2.39-2.17-6.99-6.67-9.23-11.07,0,0-4.48-1.46,8.28-8.27,12.76-6.81,31.75-17.16,32.99-29.86,1.21-12.38-17.13-37.94-28.66-10.76-.44,1.03-1.73,1.39-2.62,.7-3.83-2.98-13.36-8.74-22.57-1.33-8.62,6.93-7.86,14.37-6.78,17.94,.32,1.05-.42,2.12-1.51,2.2-5.18,.35-17.24,2.63-19.6,16.22-1.94,11.2,2.49,16.09,5.91,18.16,1.11,.67,1.11,2.25,0,2.93-2.99,1.84-6.46,5.68-4.06,13.18,3.32,10.36,14.83,6.37,18.05,5.02,.53-.22,1.13-.18,1.61,.14,3.7,2.43,20.14,12.53,34.55,10.51,1.25-.18,1.87-1.62,1.18-2.67l-10.64-16.02c-.49-.74-.34-1.74,.36-2.3l2.66-2.11Z"/>
        <path class="cls-55" d="M944.77,993.07s-17.93-6.47-16.75,2.61c1.18,9.08,17.02,9.16,23.49,3.97l-6.74-6.58Z"/>
      </g>
    </g>
    <g>
      <g>
        <path class="cls-52" d="M1640.55,661.14c-4.39-4.11-10.32-6.15-16.31-5.61-64.07,5.76-164.72-60-261.75-105.04-7.04-3.27-15.31-2.41-21.53,2.23-86.89,64.94-230.93,78.39-280.93,81.14-10.34,.57-18.73,8.59-19.8,18.9-45.47,439.17,240.47,598.31,299.78,626.41,6.48,3.07,14.11,2.63,20.2-1.17,295.57-184.11,282.93-423.53,287.02-600.94,.14-6.01-2.28-11.8-6.67-15.91Z"/>
        <path class="cls-4" d="M1341.28,1252.21c-.43,0-.86-.12-1.23-.38-.81-.55-81.63-55.72-153.35-151.04-42.15-56.01-72.98-114.74-91.64-174.56-23.34-74.82-27.58-151.54-12.62-228.02,.21-1.09,1.19-1.83,2.31-1.76,1.99,.15,200.47,13.14,281.03-95.85,.4-.54,1.02-.87,1.7-.89,.63-.04,1.31,.27,1.75,.78,.75,.89,75.29,89.27,134.49,110.59,59.18,21.3,102.34,12.11,102.77,12.01,.64-.15,1.31,.01,1.82,.41,.52,.4,.82,1.02,.84,1.67,.02,.83,1.62,84.41-30.32,190.52-18.76,62.33-45.26,120.16-78.76,171.88-41.88,64.67-94.88,119.92-157.52,164.21-.38,.27-.82,.4-1.26,.4Zm-254.9-551.27c-14.38,75.11-10.06,150.44,12.84,223.92,18.49,59.32,49.08,117.59,90.9,173.2,66.43,88.32,140.7,141.96,151.15,149.29,61.61-43.8,113.78-98.31,155.07-162.05,33.27-51.36,59.6-108.79,78.25-170.7,28.65-95.08,30.19-171.9,30.2-186.72-10.4,1.74-49.89,6.3-102.56-12.67-55.88-20.12-122.61-95.84-134.58-109.8-24.3,31.73-73.68,72.02-172.04,88.74-53.4,9.08-99.37,7.31-109.22,6.79Z"/>
      </g>
      <g class="cls-18">
        <path class="cls-2" d="M1431.52,1060.25h-181.64c-12.93,0-22.81-8.81-23.49-20.95h0s-9.76-172.86-9.76-172.86c-.35-6.17,1.71-11.75,6.13-16.57,4.25-4.65,10.29-7.43,16.58-7.64l191.37-6.27c6.4-.21,12.46,2.13,17.08,6.61,4.56,4.41,7.07,10.42,7.07,16.91v179.76c0,12.37-9.6,21.01-23.34,21.01Zm-.03-219.92c-.21,0-.43,0-.64,.01l-191.37,6.27c-5.12,.17-10.03,2.43-13.49,6.21-3.59,3.92-5.26,8.42-4.98,13.37l9.76,172.86h0c.55,9.74,8.59,16.81,19.11,16.81h181.64c9.44,0,18.96-5.14,18.96-16.63v-179.76c0-5.29-2.04-10.18-5.74-13.76-3.61-3.49-8.29-5.39-13.25-5.39Z"/>
        <path class="cls-2" d="M1262.74,845.86c-1.07,0-2-.78-2.16-1.87-6.03-41.05-.33-73.27,16.92-95.76,19.32-25.18,45.88-28.54,47-28.67,49.39-5.77,85.21,22.38,95.79,75.3,.02,.09,.03,.17,.04,.26l3.31,43.18c.09,1.21-.81,2.26-2.02,2.35-1.24,.08-2.26-.81-2.35-2.02l-3.3-43.05c-10.12-50.35-44.11-77.13-90.96-71.68-.25,.03-25.93,3.34-44.09,27.06-16.46,21.51-21.85,52.59-16.01,92.38,.18,1.2-.65,2.31-1.85,2.48-.11,.02-.22,.02-.32,.02Z"/>
        <path class="cls-2" d="M1294.17,845.86c-1.06,0-2-.78-2.16-1.86-.27-1.79-6.48-44.05,13.61-67.46,8.46-9.86,20.35-14.85,35.34-14.85s27.39,5.04,35.56,14.97c18.48,22.47,11.01,61.76,10.69,63.42-.23,1.19-1.38,1.96-2.57,1.73-1.19-.23-1.96-1.38-1.73-2.57,.08-.39,7.39-38.94-9.78-59.8-7.3-8.87-18.12-13.36-32.17-13.36s-24.42,4.48-32.01,13.33c-18.79,21.89-12.67,63.52-12.6,63.94,.18,1.2-.64,2.31-1.83,2.5-.11,.02-.22,.03-.33,.03Z"/>
        <path class="cls-2" d="M1337.97,1027.4h-1.65c-9.09,0-19.46-10.06-19.46-18.89v-73.74c-10.64-5.55-16.9-15.48-16.9-27.09,0-17.61,17.35-31.94,38.68-31.94s38.39,14.03,38.39,31.94c0,13.29-9.8,24.72-25.12,29.5v71.33c0,9.16-4.88,18.89-13.93,18.89Zm-16.73-91.3v72.41c0,6.37,8.45,14.51,15.08,14.51h1.65c6.59,0,9.55-8.48,9.55-14.51v-72.97c0-.99,.66-1.85,1.61-2.11,14.28-3.92,23.51-14.03,23.51-25.75,0-15.46-14.94-27.56-34.01-27.56s-34.3,12.36-34.3,27.56c0,10.77,6.37,19.88,17.03,24.37,.81,.34,1.34,1.14,1.34,2.02,0,1.24-.72,1.78-1.47,2.02Z"/>
      </g>
    </g>
  </g>
  <g>
    <path class="cls-6" d="M2057.69,318.74s-57.97,69.96-55.88,76.91c2.09,6.95,113.63,97.42,122.84,89.64,9.21-7.78,61.67-64.26,61.67-64.26-50.05-59.34-122.3-108.36-128.63-102.29Z"/>
    <g>
      <path class="cls-7" d="M2120.93,556.78c-14.17,0-53.34-25.75-70.33-37.4-35.63-24.43-71.69-53.46-91.86-73.96-19.89-20.21-20.39-27.55-19.03-31.31,4.22-11.72,30.83-54.43,60.13-94.05,26.13-35.33,61.33-77.93,80.66-80.26l.85-.1,.69,.5c18.43,13.38,180.1,131.29,181.3,151.87,.83,14.29-47.02,70.66-61.71,87.59-29.7,34.25-66.85,72.88-78.22,76.76-.71,.24-1.55,.36-2.49,.36Zm-40.72-312.51c-32.69,6.13-127.81,147.52-136.37,171.31-.52,1.45-.76,7.66,18.03,26.76,42.72,43.42,139.27,110.17,158.44,110.17,.66,0,1.22-.08,1.7-.24,8.8-3.01,41.62-35.46,76.33-75.49,36.74-42.37,61.11-76.31,60.64-84.46-.81-13.97-107.07-95.98-178.77-148.05Z"/>
      <path class="cls-7" d="M2123.01,487.96c-1.17,0-2.34-.29-3.3-.57-20.96-6.22-117.3-82.18-119.98-91.1-.57-1.9-1.63-5.43,27.52-43.04,14.09-18.18,28.62-35.73,28.77-35.91,.77-.93,2.15-1.06,3.08-.29,.93,.77,1.06,2.15,.29,3.08-26.98,32.55-54.88,69.24-55.42,74.93,2.29,3.87,27.93,26.09,57.28,48.68,43.42,33.42,59.49,40.74,62.13,39.79,8.89-7.53,59.42-61.65,59.93-62.19,.83-.89,2.21-.93,3.1-.11,.88,.83,.93,2.21,.11,3.1-2.09,2.24-51.22,54.85-60.42,62.63-.88,.74-1.96,1-3.06,1Z"/>
      <path class="cls-7" d="M2171.67,427.13c-26.84,0-79.39-10.83-87.48-15.94-10.54-6.65-33.45-81.63-28.51-93.3h0c.68-1.6,2.49-3.19,7.26-1.69,12.51,3.93,45.38,28.25,72.41,50.6,16.55,13.69,54.87,46.43,53.12,54.69-.37,1.74-1.65,3.08-3.83,4-2.71,1.14-7.26,1.63-12.97,1.64Zm-112.08-107.18c-3.36,10.74,18.54,82.23,26.94,87.53,8.34,5.26,82.46,19.87,96.41,13.97,.96-.41,1.23-.77,1.25-.87-.09-5.94-42.43-45.2-85.62-77.07-25.79-19.03-36.48-23.78-38.98-23.57Zm.13-.35h0Zm-2.02-.85h0Z"/>
      <path class="cls-7" d="M2042.77,367.01c-.48,0-.96-.16-1.36-.48-.95-.75-1.1-2.13-.35-3.08l5.5-6.91c.75-.95,2.13-1.1,3.08-.35,.95,.75,1.1,2.13,.35,3.08l-5.5,6.91c-.43,.54-1.07,.83-1.72,.83Z"/>
      <path class="cls-7" d="M2150.16,404.6c-.64,0-1.28-.28-1.71-.82-13.25-16.59-67.76-54.88-68.31-55.27-.99-.69-1.23-2.06-.54-3.05,.7-.99,2.06-1.23,3.05-.54,2.26,1.59,55.57,39.04,69.21,56.12,.76,.94,.6,2.32-.34,3.08-.4,.32-.89,.48-1.37,.48Z"/>
    </g>
  </g>
  <g>
    <path class="cls-5" d="M1673.38,350.63h-319.64c-6.83,0-12.37-5.54-12.37-12.37h0c0-6.83,5.54-12.37,12.37-12.37h319.64c6.83,0,12.37,5.54,12.37,12.37h0c0,6.83-5.54,12.37-12.37,12.37Z"/>
    <path class="cls-5" d="M1711.79,399.08h-319.64c-6.83,0-12.37-5.54-12.37-12.37h0c0-6.83,5.54-12.37,12.37-12.37h319.64c6.83,0,12.37,5.54,12.37,12.37h0c0,6.83-5.54,12.37-12.37,12.37Z"/>
    <path class="cls-5" d="M1620.89,495.97h-228.75c-6.83,0-12.37-5.54-12.37-12.37h0c0-6.83,5.54-12.37,12.37-12.37h228.75c6.83,0,12.37,5.54,12.37,12.37h0c0,6.83-5.54,12.37-12.37,12.37Z"/>
    <path class="cls-5" d="M1747.63,447.52h-319.64c-6.83,0-12.37-5.54-12.37-12.37h0c0-6.83,5.54-12.37,12.37-12.37h319.64c6.83,0,12.37,5.54,12.37,12.37h0c0,6.83-5.54,12.37-12.37,12.37Z"/>
  </g>
  <g>
    <path class="cls-5" d="M677.52,1095.81H331.26c-7.4,0-13.4-6-13.4-13.4h0c0-7.4,6-13.4,13.4-13.4h346.26c7.4,0,13.4,6,13.4,13.4h0c0,7.4-6,13.4-13.4,13.4Z"/>
    <path class="cls-5" d="M719.12,1148.29H372.86c-7.4,0-13.4-6-13.4-13.4h0c0-7.4,6-13.4,13.4-13.4h346.26c7.4,0,13.4,6,13.4,13.4h0c0,7.4-6,13.4-13.4,13.4Z"/>
    <path class="cls-5" d="M620.66,1253.26h-247.8c-7.4,0-13.4-6-13.4-13.4h0c0-7.4,6-13.4,13.4-13.4h247.8c7.4,0,13.4,6,13.4,13.4h0c0,7.4-6,13.4-13.4,13.4Z"/>
    <path class="cls-5" d="M757.95,1200.78H411.69c-7.4,0-13.4-6-13.4-13.4h0c0-7.4,6-13.4,13.4-13.4h346.26c7.4,0,13.4,6,13.4,13.4h0c0,7.4-6,13.4-13.4,13.4Z"/>
  </g>
  <g>
    <path class="cls-6" d="M609.07,295.47c18.66-10.06,103.81-79.87,114.16-68.69,10.35,11.19,76.54,99.21,71.68,109.21-4.86,10-114.38,79.2-125.69,74.21-11.31-4.99-82.21-102.84-60.16-114.74Z"/>
    <path class="cls-50" d="M670.53,412.58c-.87,0-1.61-.12-2.18-.38-10.21-4.51-61.52-72.29-65.15-103.63-.81-6.97,.73-11.97,4.56-14.86h0l4.54-3.44c71.13-53.93,104.79-73.37,112.55-64.99,6.31,6.81,78.07,99.25,72.05,111.65-3.18,6.56-38.38,29.69-61.25,43.64-24.54,14.96-54.75,31.99-65.1,31.99Zm48.91-184.93c-4.01,0-14.82,3.17-43.57,22.16-22.84,15.09-47.61,33.87-60.93,43.97l-4.55,3.44c-2.5,1.89-3.46,5.54-2.84,10.86,3.57,30.88,54.61,96.61,62.57,100.12,2.81,1.19,21.98-6.19,63.32-31.4,33.34-20.34,57.69-38.01,59.52-41.77,3.11-8.43-56.9-91.18-71.32-106.76-.22-.23-.79-.62-2.19-.62Zm-110.36,67.82h0Z"/>
    <path class="cls-7" d="M692.75,320.05c-1.55,0-3.1-.23-4.62-.69-4.04-1.23-7.36-3.96-9.35-7.68-4.1-7.69-1.19-17.28,6.5-21.39,3.73-1.99,8-2.4,12.04-1.18,4.04,1.23,7.36,3.96,9.35,7.68h0c4.1,7.69,1.19,17.28-6.5,21.39-2.32,1.24-4.86,1.87-7.42,1.87Zm-.03-27.24c-1.85,0-3.69,.46-5.36,1.35-5.56,2.97-7.67,9.9-4.7,15.46,1.44,2.69,3.84,4.66,6.76,5.55,2.92,.89,6.01,.59,8.7-.85,5.56-2.97,7.67-9.9,4.7-15.46h0c-1.44-2.69-3.84-4.66-6.76-5.55-1.1-.33-2.22-.5-3.34-.5Z"/>
    <path class="cls-5" d="M661.96,453.39c-3.21,0-4.93-.88-6.05-1.83-16.28-13.79-107.34-138.02-99.85-168.98l.2-.84,.72-.47c16.61-11.02,162.78-107.51,180.16-102.14,12.07,3.72,43.66,60.26,53.06,77.5,18.99,34.85,39.3,77.16,39.01,87.73-.47,16.94-96.28,81.03-141.51,101.23-13.43,5.99-21.11,7.8-25.72,7.8Zm-101.81-168.97c-4.75,28.78,81.76,149.53,98.59,163.8,.99,.85,5.9,2.86,27.15-6.63,22.75-10.16,57.3-30.67,88.03-52.26,34.97-24.57,50.76-40.35,50.9-45.1,.23-8.09-16.31-44.85-38.47-85.51-23.08-42.34-43.85-73.35-50.5-75.41-11.49-3.56-113.53,59.91-175.69,101.1Z"/>
    <path class="cls-7" d="M621.22,313.64c-.74,0-1.47-.38-1.88-1.06-.97-1.61-1.42-4.33,1.94-8.13,1.69-1.91,4.25-3.96,7.02-5.62,1.04-.62,2.38-.29,3.01,.75,.62,1.04,.29,2.38-.75,3.01-2.37,1.42-4.61,3.21-5.99,4.77-1.33,1.5-1.69,2.59-1.47,2.97,.62,1.04,.29,2.38-.75,3.01-.35,.21-.74,.31-1.13,.31Z"/>
    <path class="cls-7" d="M642.52,292.65c-.59,0-1.19-.24-1.62-.72-.81-.89-.75-2.28,.14-3.09,.78-.71,19.26-17.44,38.21-25.36,1.12-.47,2.4,.06,2.87,1.18,.47,1.12-.06,2.4-1.18,2.87-18.25,7.63-36.76,24.39-36.94,24.56-.42,.38-.95,.57-1.47,.57Z"/>
    <path class="cls-7" d="M687.64,379.49c-.74,0-1.49-.2-2.14-.6-1.24-.76-1.98-2.14-1.95-3.59,.18-7.07,1.73-25.21,12.36-40.86h0c14.66-21.58,62.51,1.96,62.95,2.25l1.04,.68-.04,1.28c-.08,1.72-.12,2.67-70.3,40.35-.6,.32-1.27,.49-1.94,.49Zm11.9-42.58c-9.73,14.33-11.36,30.99-11.59,38,33.33-17.89,57.59-31.26,65.48-36.04-10.92-4.91-43.87-16.71-53.89-1.96h0Z"/>
  </g>
  <g>
    <g>
      <path class="cls-54" d="M1825.08,1148.51c-.26,.49-16.5,12.44-16.5,12.44,0,0,3.59,25.66,18.15,35.8,16.01,11.14,38.63-9.18,38.63-9.18,0,0,18,4.28,27.57-33.19,2.2-8.6-10.48-9.32-25.78-7.74-19.73,2.04-42.08,1.87-42.08,1.87Z"/>
      <path class="cls-24" d="M1794.72,1236.06c6.35-4.37,13.38-7.66,20.83-9.69,2.8-.76,17.9,3.63,27.24,3.41,12.82-.29,25.87-6.13,36.43-3.49,10.5,2.62,19.09,6.03,24.05,9.56,14.85,10.56,23.56,30.25,28.87,49.75-10.06,10.32-22.72,14.91-22.72,14.91l-2.34,94.8-56.06,28.68-63.98-32.12,2.29-92.64s-20.32-9.46-21.81-12.9c-1.49-3.44,9.26-37.94,27.18-50.27Z"/>
      <path class="cls-23" d="M1768.48,1285.91s-27.23,75.48,34.86,106.5c12.89-1.71,7.93-23.12,7.93-23.12,0,0-26.98-5.97-18.87-68.94-7.46-6.14-23.92-14.45-23.92-14.45Z"/>
      <path class="cls-26" d="M1930.83,1285.91s18.73,78.79-34.86,106.5c-12.89-1.71-7.93-23.12-7.93-23.12,0,0,21.74-10.71,18.87-68.94,7.46-6.14,23.92-14.45,23.92-14.45Z"/>
      <rect class="cls-25" x="1786.31" y="1314.7" width="122.92" height="83.02" rx="7.57" ry="7.57"/>
      <g>
        <path class="cls-29" d="M1963.15,1422.33c-14.07-3.23-46.58-1.49-46.58-1.49l-1.32,3.58-2.19,17.8s30.96,5.58,46.23,5.57c1.56,0,2.98-.24,4.28-.64,.47-.42,.92-.85,1.35-1.32,6.48-7.07,4.61-17.46-1.77-23.5Z"/>
        <path class="cls-27" d="M1907.23,1419.84l5.51,.23c2.96,.13,5.75,1.57,7.73,4,1.99,2.43,3.01,5.65,2.84,8.93-.14,2.61-1.21,5.06-2.98,6.79-1.77,1.73-4.09,2.61-6.44,2.45l-8.42-.6,1.77-21.8Z"/>
      </g>
      <g>
        <path class="cls-28" d="M1722.1,1420.62c14.14-2.8,46.6-.06,46.6-.06l1.23,3.62,1.75,17.86s-31.09,4.63-46.35,4.15c-1.56-.05-2.97-.33-4.26-.77-.45-.43-.9-.88-1.32-1.36-6.3-7.27-4.17-17.6,2.35-23.43Z"/>
        <path class="cls-31" d="M1778.07,1419.84l-5.51,.07c-2.96,.04-5.78,1.39-7.83,3.76-2.05,2.37-3.15,5.55-3.06,8.84,.07,2.62,1.08,5.09,2.81,6.88,1.72,1.79,4.02,2.74,6.38,2.64l8.44-.34-1.22-21.84Z"/>
      </g>
      <path class="cls-32" d="M1967.09,1366.53c-6.38-14.68-21.98-17.07-35.26-10.2-.23,.3-84.34,43.41-158.51,62.3,2.12,6.81,3.22,14.05,3.45,21.17,.04,1.59,.02,3.15-.08,4.69,56.88-2.92,118.61-21.89,171.66-38.56,16.45-5.3,25.81-23.13,18.74-39.4Z"/>
      <path class="cls-30" d="M1907.63,1440.91c-.22-8.21,1.37-15.85,4.79-22.92,.1-.32,.21-.64,.32-.95-4.24-1.31-9.71-3.09-16.9-5.53-52.67-18.02-92.85-36.23-131.2-57.18-14.9-8.14-31.84-2.68-36.61,14.94-4.26,15.74,5.09,29.17,19.28,33.89,42.45,14.13,20.35,10.2,34.21,14.66,37.23,11.51,83.56,22,126.19,24.86-.03-.6-.07-1.19-.09-1.79Z"/>
      <path class="cls-22" d="M1815.55,1226.37s5.66,24.55,33.17,24.04c28.01-.51,30.51-24.12,30.51-24.12l-18.3-3.92-1.53-20.39-27.52,2.04-.51,19.37-15.81,2.98Z"/>
      <path class="cls-20" d="M1835.74,1144.22s-31.54,61.1,5.87,75.92c26.39,10.46,42.94-40.57,38-54.39-7.63-21.37-12.66-18.83-12.66-18.83l-31.22-2.69Z"/>
      <path class="cls-21" d="M1887.2,1138.66c15.58,4.28,2.27,38.08-21.19,30.09-23.46-7.99-32.68-7.88-36.33-1.43-3.66,6.44-4.44,29.32-12.37,18.01-8.7-12.4-13.55-37.28-2.88-45.3,9.53-7.17,11.75-18.28,23.18-17.9,15.17,.51,26.9-6.21,33.75-1.36,7.86,5.57,4.39,14.75,15.85,17.9Z"/>
      <path class="cls-19" d="M1828.23,1172.57s-6.73-7.24-7.8,1.49c-1.08,8.72,2.38,19.96,6.43,13.8,4.05-6.16,1.37-15.29,1.37-15.29Z"/>
    </g>
    <path class="cls-6" d="M1855.1,1353.45c.65,4.4-1.71,8.4-6.11,9.05-4.4,.65-8.5-2.39-9.15-6.79-.65-4.4,1.36-8.78,5.77-9.43,4.4-.65,8.85,2.77,9.5,7.17Z"/>
  </g>
  <g>
    <g>
      <path class="cls-7" d="M1731.28,254.02l4.77-4.6c.87-.84,2.26-.82,3.1,.06,.84,.87,.82,2.26-.06,3.1,0,0-.02,.02-.03,.03l-.05,.04-4.79,4.42-.04,.03c-.86,.79-2.2,.74-3-.12-.78-.85-.74-2.17,.09-2.97Z"/>
      <path class="cls-7" d="M1747.6,239.13l5.12-4.21c1.04-.85,2.57-.71,3.43,.33,.85,1.04,.71,2.57-.33,3.43-.01,0-.02,.02-.03,.03l-.05,.04-5.12,4.03-.04,.03c-1.03,.81-2.51,.63-3.32-.4-.8-1.01-.63-2.47,.36-3.28Z"/>
      <path class="cls-7" d="M1765.03,225.56l5.42-3.8c1.21-.85,2.88-.56,3.73,.65,.85,1.21,.56,2.88-.65,3.73-.01,0-.03,.02-.04,.03l-.06,.04-5.41,3.62-.05,.03c-1.19,.8-2.81,.48-3.61-.72-.79-1.18-.48-2.77,.67-3.58Z"/>
      <path class="cls-7" d="M1783.47,213.38l5.7-3.37c1.36-.81,3.12-.35,3.92,1.01s.35,3.12-1.01,3.92c0,0-.02,.01-.03,.02l-.07,.04-5.65,3.22-.05,.03c-1.35,.77-3.06,.3-3.83-1.05-.76-1.33-.3-3.03,1.01-3.81Z"/>
      <path class="cls-7" d="M1802.77,202.62l5.94-2.95c1.51-.75,3.34-.13,4.09,1.37,.75,1.51,.13,3.34-1.37,4.09,0,0-.02,.01-.03,.02l-.07,.03-5.87,2.79-.06,.03c-1.49,.71-3.28,.08-3.99-1.42-.7-1.48-.09-3.24,1.37-3.97Z"/>
      <path class="cls-7" d="M1822.82,193.29l6.14-2.52c1.65-.68,3.54,.11,4.22,1.76,.68,1.65-.11,3.54-1.76,4.22-.01,0-.02,0-.03,.01l-.08,.03-6.06,2.37-.06,.02c-1.63,.64-3.48-.17-4.11-1.8-.63-1.62,.15-3.44,1.75-4.1Z"/>
      <path class="cls-7" d="M1843.49,185.39l6.31-2.09c1.79-.59,3.72,.38,4.32,2.17,.59,1.79-.38,3.72-2.17,4.32-.01,0-.03,0-.04,.01l-.08,.03-6.21,1.94-.07,.02c-1.77,.55-3.66-.43-4.21-2.21-.55-1.75,.42-3.62,2.15-4.19Z"/>
      <path class="cls-7" d="M1864.68,178.95l6.45-1.64c1.93-.49,3.89,.67,4.38,2.6,.49,1.93-.67,3.89-2.6,4.38-.01,0-.03,0-.04,.01l-.09,.02-6.33,1.5-.07,.02c-1.9,.45-3.81-.73-4.27-2.63-.45-1.88,.7-3.77,2.57-4.25Z"/>
      <path class="cls-7" d="M1886.28,173.99l6.54-1.19c2.06-.38,4.03,.99,4.4,3.04,.37,2.06-.99,4.03-3.04,4.4-.01,0-.03,0-.04,0l-.1,.02-6.41,1.06h-.08c-2.03,.35-3.95-1.03-4.29-3.06-.33-2.01,1.01-3.91,3.01-4.27Z"/>
      <path class="cls-7" d="M1908.18,170.54l6.62-.74c2.18-.24,4.14,1.32,4.38,3.5,.24,2.18-1.32,4.14-3.5,4.38-.01,0-.03,0-.05,0h-.1s-6.47,.62-6.47,.62h-.08c-2.15,.21-4.06-1.37-4.26-3.52-.2-2.13,1.34-4.02,3.46-4.26Z"/>
      <path class="cls-7" d="M1930.29,168.65l6.66-.26c2.26-.09,4.17,1.68,4.26,3.94s-1.68,4.17-3.94,4.26c0,0-.01,0-.02,0h-.11s-6.49,.18-6.49,.18h-.09c-2.24,.06-4.11-1.7-4.18-3.95-.06-2.23,1.68-4.09,3.91-4.17Z"/>
      <path class="cls-7" d="M1952.49,168.34l6.66,.21c2.33,.08,4.16,2.02,4.08,4.35-.08,2.33-2.02,4.16-4.35,4.08,0,0-.02,0-.02,0h-.11s-6.48-.28-6.48-.28h-.09c-2.31-.1-4.1-2.06-4-4.36,.1-2.29,2.03-4.07,4.32-4Z"/>
      <path class="cls-7" d="M1974.66,169.62l6.63,.69c2.38,.25,4.11,2.38,3.86,4.77-.25,2.38-2.38,4.11-4.77,3.86,0,0-.02,0-.02,0h-.12s-6.43-.76-6.43-.76h-.09c-2.36-.28-4.05-2.42-3.78-4.78,.27-2.34,2.38-4.03,4.72-3.79Z"/>
      <path class="cls-7" d="M1996.68,172.49l6.56,1.18c2.42,.44,4.04,2.75,3.6,5.18-.44,2.42-2.75,4.04-5.18,3.6,0,0-.02,0-.02,0l-.12-.02-6.35-1.21-.1-.02c-2.4-.46-3.97-2.78-3.51-5.18,.46-2.38,2.75-3.95,5.13-3.52Z"/>
      <path class="cls-7" d="M2018.45,177l6.46,1.67c2.45,.63,3.92,3.13,3.28,5.58-.63,2.45-3.13,3.92-5.58,3.28,0,0-.02,0-.02,0l-.13-.03-6.24-1.69-.1-.03c-2.42-.66-3.85-3.15-3.2-5.57,.65-2.4,3.12-3.83,5.52-3.21Z"/>
      <path class="cls-7" d="M2039.83,183.16l6.31,2.17c2.45,.84,3.76,3.52,2.92,5.97-.84,2.45-3.52,3.76-5.97,2.92,0,0-.02,0-.02,0l-.13-.05-6.08-2.17-.1-.04c-2.43-.86-3.69-3.53-2.83-5.96,.86-2.41,3.5-3.67,5.91-2.85Z"/>
      <path class="cls-7" d="M2060.68,190.98l6.12,2.66c2.44,1.06,3.56,3.9,2.5,6.34-1.06,2.44-3.9,3.56-6.34,2.5,0,0-.02,0-.02-.01l-.12-.05-5.9-2.64-.1-.04c-2.41-1.08-3.49-3.91-2.42-6.32,1.07-2.39,3.87-3.48,6.27-2.44Z"/>
      <path class="cls-7" d="M2080.86,200.35l5.92,3.09c2.42,1.26,3.36,4.24,2.09,6.66-1.26,2.42-4.24,3.36-6.66,2.09,0,0-.02,0-.02-.01l-.11-.06-5.7-3.05-.09-.05c-2.39-1.28-3.28-4.25-2.01-6.64,1.27-2.37,4.21-3.27,6.59-2.03Z"/>
      <path class="cls-7" d="M2100.32,211.11l5.69,3.48c2.38,1.46,3.13,4.57,1.68,6.95-1.46,2.38-4.57,3.13-6.95,1.68,0,0-.02,0-.02-.01l-.11-.07-5.48-3.44-.09-.05c-2.35-1.47-3.06-4.57-1.59-6.92,1.46-2.33,4.53-3.05,6.87-1.62Z"/>
      <path class="cls-7" d="M2119.02,223.13l5.45,3.83c2.34,1.64,2.9,4.87,1.26,7.21-1.64,2.34-4.87,2.9-7.21,1.26,0,0-.02-.01-.02-.02l-.1-.07-5.26-3.78-.08-.06c-2.31-1.66-2.83-4.87-1.17-7.18,1.65-2.29,4.83-2.82,7.13-1.2Z"/>
      <path class="cls-7" d="M2136.92,236.29l5.21,4.15c2.29,1.82,2.67,5.16,.84,7.44-1.82,2.29-5.16,2.67-7.44,.84,0,0-.02-.01-.02-.02l-.09-.08-5.02-4.09-.07-.06c-2.25-1.83-2.59-5.15-.76-7.4,1.82-2.24,5.11-2.58,7.36-.79Z"/>
      <path class="cls-7" d="M2154.01,250.46l4.96,4.44c2.23,1.99,2.41,5.41,.42,7.64-1.99,2.23-5.41,2.41-7.64,.42l-.03-.03-.06-.06-4.8-4.36-.07-.06c-2.2-2-2.36-5.4-.36-7.6,1.99-2.19,5.37-2.35,7.57-.39Z"/>
      <path class="cls-7" d="M2170.24,265.59l4.7,4.69c2.14,2.13,2.14,5.59,.01,7.72-2.13,2.13-5.59,2.14-7.72,0l-.02-.02-.06-.06-4.57-4.6-.06-.06c-2.12-2.13-2.11-5.58,.03-7.7,2.13-2.12,5.56-2.13,7.68,0Z"/>
      <path class="cls-7" d="M2185.66,281.5l4.47,4.92c2.05,2.25,1.88,5.74-.37,7.79-2.25,2.05-5.74,1.88-7.79-.37l-.02-.02-.05-.06-4.35-4.83-.05-.06c-2.03-2.26-1.85-5.73,.41-7.76,2.25-2.03,5.71-1.87,7.74,.39Z"/>
      <path class="cls-7" d="M2200.3,298.14l4.25,5.12c1.96,2.37,1.63,5.87-.73,7.83-2.37,1.96-5.87,1.63-7.83-.73l-.02-.02-.05-.06-4.13-5.03-.05-.06c-1.94-2.37-1.6-5.86,.77-7.81,2.37-1.94,5.85-1.62,7.79,.75Z"/>
      <path class="cls-7" d="M2214.17,315.4l4.02,5.29c1.88,2.47,1.39,5.99-1.08,7.87-2.47,1.88-5.99,1.39-7.87-1.08l-.02-.02-.04-.06-3.91-5.2-.04-.06c-1.86-2.47-1.36-5.98,1.11-7.84,2.47-1.86,5.97-1.38,7.82,1.09Z"/>
      <path class="cls-7" d="M2227.3,333.22l3.8,5.45c1.79,2.57,1.16,6.1-1.41,7.89-2.57,1.79-6.1,1.16-7.89-1.41l-.02-.02-.04-.05-3.7-5.36-.04-.06c-1.77-2.57-1.13-6.09,1.44-7.86,2.57-1.77,6.07-1.15,7.85,1.42Z"/>
      <path class="cls-7" d="M2239.72,351.54l3.59,5.59c1.71,2.66,.93,6.2-1.72,7.9-2.66,1.71-6.2,.93-7.9-1.72v-.02s-.05-.06-.05-.06l-3.49-5.5-.04-.06c-1.69-2.66-.9-6.18,1.76-7.87,2.66-1.69,6.17-.93,7.86,1.73Z"/>
      <path class="cls-7" d="M2251.42,370.33l3.37,5.72c1.62,2.75,.7,6.29-2.05,7.9-2.75,1.62-6.29,.7-7.9-2.05v-.02s-.05-.06-.05-.06l-3.27-5.62-.03-.06c-1.6-2.75-.67-6.27,2.08-7.87,2.75-1.6,6.26-.69,7.86,2.06Z"/>
      <path class="cls-7" d="M2262.37,389.57l3.13,5.86c1.52,2.84,.45,6.37-2.39,7.88-2.84,1.52-6.37,.45-7.88-2.39v-.02s-.05-.06-.05-.06l-3.04-5.75-.03-.06c-1.5-2.84-.42-6.35,2.42-7.85,2.84-1.5,6.34-.44,7.84,2.4Z"/>
      <path class="cls-7" d="M2272.53,409.25l2.88,5.99c1.41,2.92,.18,6.44-2.74,7.84-2.92,1.41-6.44,.18-7.84-2.75v-.02s-.04-.07-.04-.07l-2.79-5.87-.03-.07c-1.39-2.92-.15-6.42,2.78-7.81,2.92-1.39,6.41-.17,7.8,2.75Z"/>
      <path class="cls-7" d="M2281.84,429.36l2.62,6.12c1.29,3.01-.11,6.49-3.12,7.78-3.01,1.29-6.49-.11-7.78-3.12v-.03s-.04-.07-.04-.07l-2.52-5.98-.03-.07c-1.27-3.01,.14-6.48,3.15-7.75,3.01-1.27,6.47,.11,7.74,3.12Z"/>
      <path class="cls-7" d="M2290.23,449.89l2.33,6.24c1.16,3.09-.41,6.54-3.51,7.7-3.09,1.16-6.54-.41-7.7-3.51v-.03s-.04-.08-.04-.08l-2.24-6.09-.03-.08c-1.14-3.09,.44-6.52,3.53-7.66,3.09-1.14,6.51,.42,7.65,3.51Z"/>
      <path class="cls-7" d="M2297.65,470.8l2.02,6.35c1.01,3.17-.74,6.57-3.91,7.58-3.17,1.01-6.57-.74-7.58-3.91v-.03s-.04-.09-.04-.09l-1.94-6.18-.03-.09c-.99-3.17,.77-6.55,3.94-7.54,3.17-.99,6.54,.74,7.53,3.91Z"/>
      <path class="cls-7" d="M2304.02,492.08l1.7,6.46c.85,3.25-1.09,6.58-4.34,7.43-3.25,.85-6.58-1.09-7.43-4.34v-.03s-.03-.09-.03-.09l-1.62-6.28-.02-.09c-.84-3.25,1.12-6.55,4.36-7.39,3.25-.84,6.55,1.09,7.38,4.33Z"/>
      <path class="cls-7" d="M2309.26,513.7l1.34,6.54c.68,3.32-1.46,6.56-4.78,7.24-3.32,.68-6.56-1.46-7.24-4.78v-.03s-.03-.1-.03-.1l-1.27-6.34-.02-.1c-.66-3.31,1.49-6.54,4.8-7.2,3.31-.66,6.53,1.46,7.2,4.77Z"/>
      <path class="cls-7" d="M2313.3,535.58l.96,6.6c.49,3.38-1.85,6.52-5.23,7.02-3.38,.49-6.52-1.85-7.02-5.23v-.03s-.02-.11-.02-.11l-.9-6.39v-.11c-.49-3.38,1.86-6.5,5.23-6.97,3.38-.48,6.49,1.84,6.97,5.22Z"/>
      <path class="cls-7" d="M2316.05,557.68l.55,6.65c.28,3.43-2.26,6.43-5.69,6.72-3.43,.28-6.43-2.27-6.71-5.69v-.11s-.54-6.42-.54-6.42v-.11c-.29-3.43,2.25-6.43,5.68-6.72,3.43-.28,6.43,2.26,6.72,5.69h0Z"/>
      <path class="cls-7" d="M2317.35,579.91l.11,6.68c.06,3.4-2.65,6.19-6.05,6.25-3.38,.06-6.17-2.63-6.25-6v-.12s-.15-6.45-.15-6.45v-.12c-.08-3.41,2.62-6.23,6.02-6.31,3.41-.08,6.23,2.62,6.31,6.03v.04Z"/>
      <path class="cls-7" d="M2317.13,602.21l-.4,6.69c-.2,3.27-3.01,5.77-6.28,5.57-3.22-.19-5.69-2.92-5.58-6.13v-.14s.24-6.44,.24-6.44v-.13c.12-3.32,2.91-5.91,6.23-5.8,3.32,.12,5.91,2.91,5.8,6.23,0,.04,0,.11,0,.14Z"/>
      <path class="cls-7" d="M2315.21,624.45l-.93,6.63c-.43,3.05-3.25,5.18-6.3,4.75-2.97-.42-5.06-3.1-4.78-6.05v-.13s.64-6.42,.64-6.42v-.12c.32-3.14,3.11-5.44,6.25-5.14,3.14,.31,5.44,3.1,5.14,6.24,0,.07-.02,.17-.03,.24Z"/>
      <path class="cls-7" d="M2311.58,646.44l-1.39,6.54c-.59,2.76-3.3,4.53-6.07,3.94-2.69-.57-4.43-3.16-3.98-5.85l.02-.12,1.08-6.37,.02-.11c.48-2.86,3.2-4.79,6.06-4.31,2.86,.48,4.79,3.2,4.31,6.06-.01,.07-.03,.15-.04,.22Z"/>
      <path class="cls-7" d="M2306.41,668.09l-1.85,6.41c-.71,2.47-3.29,3.89-5.76,3.18-2.4-.69-3.81-3.15-3.23-5.55l.03-.11,1.52-6.29,.02-.1c.62-2.58,3.21-4.16,5.79-3.54,2.58,.62,4.16,3.21,3.54,5.79-.02,.06-.04,.14-.05,.2Z"/>
      <path class="cls-7" d="M2299.71,689.29l-2.3,6.25c-.79,2.15-3.18,3.26-5.34,2.46-2.09-.77-3.19-3.05-2.53-5.15l.03-.1,1.97-6.18,.03-.09c.72-2.27,3.14-3.52,5.41-2.8,2.27,.72,3.52,3.14,2.8,5.41-.02,.06-.04,.13-.06,.18Z"/>
      <path class="cls-7" d="M2291.5,709.92l-2.75,6.06c-.84,1.84-3.01,2.66-4.85,1.82-1.79-.81-2.61-2.89-1.89-4.69l.03-.09,2.42-6.02,.03-.08c.78-1.96,3.01-2.9,4.96-2.12,1.96,.78,2.9,3.01,2.12,4.96-.02,.05-.05,.11-.07,.16Z"/>
      <path class="cls-7" d="M2281.89,729.91l-3.16,5.85c-.87,1.62-2.89,2.22-4.51,1.35-1.59-.86-2.19-2.81-1.39-4.41l.04-.08,2.91-5.8,.04-.07c.85-1.69,2.91-2.38,4.6-1.53,1.69,.85,2.38,2.91,1.53,4.6-.01,.03-.03,.07-.05,.09Z"/>
      <path class="cls-7" d="M2270.89,749.14l-3.57,5.61c-.92,1.45-2.85,1.88-4.3,.95-1.44-.91-1.87-2.81-.98-4.25l.04-.07,3.4-5.53,.04-.06c.91-1.49,2.86-1.95,4.35-1.04,1.49,.92,1.95,2.86,1.04,4.35,0,0-.02,.03-.03,.04Z"/>
      <path class="cls-7" d="M2258.46,767.49l-3.99,5.31c-.99,1.32-2.86,1.58-4.18,.59-1.32-.99-1.58-2.86-.59-4.18l.04-.05,3.88-5.21,.05-.06c.99-1.33,2.87-1.6,4.2-.62,1.33,.99,1.6,2.87,.62,4.2h0Z"/>
      <path class="cls-7" d="M2244.63,784.8l-4.44,4.95c-1.08,1.21-2.94,1.31-4.15,.23-1.21-1.08-1.31-2.94-.23-4.15l.04-.05,4.31-4.85,.05-.06c1.08-1.22,2.95-1.33,4.17-.25,1.22,1.08,1.33,2.95,.25,4.17h0Z"/>
      <path class="cls-7" d="M2229.34,800.83l-4.87,4.53c-1.17,1.09-3,1.02-4.08-.15s-1.02-3,.14-4.08l.05-.05,4.73-4.44,.06-.05c1.17-1.1,3.01-1.04,4.1,.13,1.1,1.17,1.04,3.01-.13,4.11h0Z"/>
      <path class="cls-7" d="M2212.63,815.4l-5.27,4.05c-1.24,.96-3.03,.73-3.99-.52-.96-1.24-.73-3.03,.52-3.99l.05-.04,5.12-3.98,.06-.05c1.25-.97,3.04-.74,4.01,.5,.97,1.25,.74,3.04-.5,4.01h0Z"/>
      <path class="cls-7" d="M2194.64,828.32l-5.63,3.54c-1.31,.82-3.03,.43-3.85-.88-.82-1.31-.43-3.03,.88-3.85l.06-.04,5.48-3.48,.07-.04c1.31-.83,3.05-.44,3.88,.87,.83,1.31,.44,3.05-.87,3.88h-.01Z"/>
      <path class="cls-7" d="M2175.51,839.49l-5.92,3.01c-1.35,.69-3.01,.15-3.7-1.21-.69-1.35-.15-3.01,1.21-3.69l.05-.03,5.78-2.97,.07-.03c1.36-.7,3.02-.16,3.72,1.2,.7,1.36,.16,3.02-1.2,3.72h-.01Z"/>
      <path class="cls-7" d="M2155.47,848.9l-6.16,2.48c-1.38,.56-2.96-.11-3.51-1.5-.56-1.38,.11-2.96,1.5-3.52l.05-.02,6.02-2.45,.06-.03c1.39-.57,2.97,.1,3.54,1.49,.57,1.39-.1,2.97-1.49,3.54h-.01Z"/>
      <path class="cls-7" d="M2134.72,856.56l-6.34,1.97c-1.4,.44-2.89-.35-3.32-1.75-.44-1.4,.35-2.89,1.75-3.32l.05-.02,6.21-1.96,.06-.02c1.41-.44,2.9,.34,3.35,1.74,.44,1.41-.34,2.9-1.74,3.35h-.01Z"/>
      <path class="cls-7" d="M2113.44,862.55l-6.46,1.48c-1.4,.32-2.8-.56-3.12-1.96-.32-1.4,.56-2.8,1.96-3.12h.05s6.34-1.49,6.34-1.49h.06c1.41-.34,2.82,.53,3.15,1.94,.33,1.41-.55,2.82-1.96,3.15h-.01Z"/>
      <path class="cls-7" d="M2091.79,866.92l-6.55,1.01c-1.4,.22-2.71-.74-2.92-2.14-.22-1.4,.74-2.71,2.14-2.92h.04s6.44-1.03,6.44-1.03h.05c1.4-.23,2.72,.73,2.95,2.13,.22,1.4-.73,2.72-2.14,2.95h-.01Z"/>
      <path class="cls-7" d="M2069.91,869.77l-6.6,.57c-1.38,.12-2.6-.9-2.72-2.29-.12-1.38,.9-2.6,2.29-2.72h.04s6.49-.6,6.49-.6h.05c1.39-.13,2.62,.89,2.75,2.28,.13,1.39-.9,2.62-2.29,2.75h-.01Z"/>
      <path class="cls-7" d="M2047.9,871.19l-6.62,.16c-1.36,.03-2.49-1.04-2.52-2.41-.03-1.36,1.04-2.49,2.41-2.52h.03s6.53-.19,6.53-.19h.05c1.37-.04,2.51,1.04,2.55,2.41,.04,1.37-1.04,2.51-2.41,2.55h-.01Z"/>
      <path class="cls-7" d="M2025.85,871.29l-6.61-.21c-1.36-.04-2.43-1.18-2.38-2.54,.04-1.36,1.18-2.43,2.54-2.38h0s.04,0,.04,0l6.52,.22h.04c1.36,.05,2.42,1.18,2.37,2.54-.05,1.36-1.18,2.42-2.54,2.37Z"/>
      <path class="cls-7" d="M2003.84,870.14l-6.59-.59c-1.37-.12-2.37-1.33-2.25-2.69,.12-1.37,1.33-2.37,2.69-2.25h0s.04,0,.04,0l6.5,.59h.04c1.36,.13,2.37,1.33,2.24,2.69-.12,1.36-1.32,2.37-2.69,2.24Z"/>
      <path class="cls-7" d="M1981.93,867.76l-6.55-.94c-1.37-.2-2.32-1.47-2.12-2.83,.2-1.37,1.47-2.32,2.83-2.12h0s.04,0,.04,0l6.47,.94h.04c1.36,.2,2.31,1.47,2.11,2.84-.2,1.36-1.46,2.31-2.83,2.11Z"/>
      <path class="cls-7" d="M1960.17,864.21l-6.48-1.28c-1.37-.27-2.26-1.59-1.99-2.96,.27-1.37,1.59-2.26,2.96-1.99h0s.03,0,.03,0l6.4,1.27h.03c1.36,.28,2.25,1.6,1.98,2.96-.27,1.36-1.59,2.25-2.95,1.98Z"/>
      <path class="cls-7" d="M1938.65,859.62l-6.42-1.56c-1.36-.33-2.2-1.71-1.87-3.07,.33-1.36,1.71-2.2,3.07-1.87h0s.03,0,.03,0l6.35,1.56h.03c1.36,.34,2.19,1.71,1.86,3.07-.33,1.36-1.7,2.19-3.06,1.86Z"/>
      <path class="cls-7" d="M1917.34,854.1l-6.34-1.82c-1.36-.39-2.15-1.81-1.76-3.17,.39-1.36,1.81-2.14,3.17-1.76h0s.03,0,.03,0l6.28,1.81h.03c1.36,.4,2.14,1.82,1.75,3.17-.39,1.36-1.8,2.14-3.16,1.75Z"/>
      <path class="cls-7" d="M1896.28,847.76l-6.27-2.05c-1.35-.44-2.09-1.9-1.65-3.25,.44-1.35,1.9-2.09,3.25-1.65h0s.02,0,.02,0l6.22,2.04h.03c1.35,.45,2.09,1.91,1.64,3.26-.44,1.35-1.89,2.09-3.24,1.64Z"/>
      <path class="cls-7" d="M1875.46,840.7l-6.2-2.25c-1.35-.49-2.05-1.98-1.56-3.33,.49-1.35,1.98-2.05,3.33-1.56h0s.02,0,.02,0l6.15,2.24h.02c1.35,.5,2.04,1.99,1.55,3.33-.49,1.35-1.97,2.04-3.32,1.55Z"/>
      <path class="cls-7" d="M1854.87,833.01l-6.14-2.41c-1.35-.53-2.02-2.06-1.49-3.41,.53-1.35,2.06-2.02,3.41-1.49h.01s.02,.01,.02,.01l6.09,2.42h.02c1.34,.54,1.99,2.06,1.46,3.4-.53,1.34-2.04,1.99-3.38,1.47Z"/>
      <path class="cls-7" d="M1834.48,824.83l-6.07-2.54c-1.38-.58-2.03-2.17-1.46-3.55,.58-1.38,2.17-2.03,3.55-1.46h.02s.02,.01,.02,.01l6.02,2.57h.02c1.36,.59,2,2.17,1.42,3.53-.58,1.36-2.15,1.99-3.51,1.42Z"/>
      <path class="cls-7" d="M1814.3,816.22l-6.03-2.66c-1.41-.62-2.05-2.27-1.43-3.69,.62-1.41,2.27-2.05,3.68-1.43h.02s.01,.01,.01,.01l5.98,2.69h.01c1.39,.63,2.02,2.27,1.39,3.67-.63,1.39-2.25,2.01-3.64,1.4Z"/>
      <path class="cls-7" d="M1794.26,807.24l-5.99-2.75c-1.44-.66-2.08-2.37-1.41-3.82,.66-1.44,2.37-2.08,3.82-1.41h.02s.01,.01,.01,.01l5.94,2.79h.01c1.43,.67,2.04,2.37,1.37,3.8-.67,1.42-2.35,2.03-3.77,1.38Z"/>
      <path class="cls-7" d="M1774.36,797.98l-5.95-2.82c-1.48-.7-2.11-2.46-1.41-3.94,.7-1.48,2.47-2.11,3.94-1.41h.03s5.92,2.87,5.92,2.87c1.46,.7,2.08,2.45,1.38,3.92-.7,1.45-2.45,2.07-3.9,1.38Z"/>
      <path class="cls-7" d="M1754.57,788.53l-5.93-2.86c-1.51-.73-2.15-2.55-1.42-4.06,.73-1.51,2.55-2.15,4.06-1.42h.02s5.89,2.92,5.89,2.92c1.5,.73,2.11,2.54,1.38,4.04-.73,1.49-2.53,2.11-4.02,1.39Z"/>
      <path class="cls-7" d="M1734.83,779l-5.91-2.86c-1.58-.77-2.24-2.67-1.48-4.25,.77-1.58,2.67-2.24,4.25-1.48,0,0,.03,.01,.04,.02l5.87,2.94c1.55,.77,2.18,2.66,1.41,4.21-.77,1.54-2.63,2.17-4.18,1.42Z"/>
      <path class="cls-7" d="M1715.12,769.45l-1.34-.65c-1.63-.79-2.32-2.76-1.53-4.39,.79-1.63,2.75-2.32,4.39-1.53,0,0,.03,.01,.03,.02l1.33,.66c1.62,.81,2.28,2.77,1.47,4.39-.8,1.61-2.75,2.27-4.36,1.49Z"/>
    </g>
    <g>
      <polygon class="cls-6" points="1707.59 239.58 1721.61 261.44 1700.77 261.54 1707.59 239.58"/>
      <path class="cls-5" d="M1601.21,290.08l92.26,13.93c1.77,.27,3.57-.2,4.98-1.28,1.42-1.09,2.33-2.7,2.53-4.48l10.49-93.16c.12-1.07-.42-2.1-1.36-2.61-.94-.51-2.1-.4-2.93,.28l-105.98,87.33Z"/>
      <polygon class="cls-6" points="1707.58 239.59 1601.21 290.08 1705.93 254.63 1710.08 260.52 1707.58 239.59"/>
      <polygon class="cls-6" points="1704.89 263.54 1721.61 261.44 1705.93 254.63 1704.89 263.54"/>
    </g>
  </g>
</svg>