<svg width="152" height="120" viewBox="0 0 152 120" fill="none" xmlns="http://www.w3.org/2000/svg">
<circle cx="76" cy="52" r="52" fill="#EAECF0"/>
<g filter="url(#filter0_dd_289_14595)">
<path d="M77.6 16C66.8273 16 57.2978 21.3233 51.4987 29.4829C49.605 29.0363 47.6301 28.8 45.6 28.8C31.4615 28.8 20 40.2615 20 54.4C20 68.5385 31.4615 80 45.6 80L109.6 80C121.971 80 132 69.9712 132 57.6C132 45.2288 121.971 35.2 109.6 35.2C108.721 35.2 107.854 35.2506 107.002 35.349C102.098 23.9677 90.7797 16 77.6 16Z" fill="#F9FAFB"/>
<ellipse cx="45.6" cy="54.4" rx="25.6" ry="25.6" fill="url(#paint0_linear_289_14595)"/>
<circle cx="77.6" cy="48" r="32" fill="url(#paint1_linear_289_14595)"/>
<ellipse cx="109.6" cy="57.6" rx="22.4" ry="22.4" fill="url(#paint2_linear_289_14595)"/>
</g>
<circle cx="21" cy="19" r="5" fill="#F2F4F7"/>
<circle cx="18" cy="109" r="7" fill="#F2F4F7"/>
<circle cx="145" cy="35" r="7" fill="#F2F4F7"/>
<circle cx="134" cy="8" r="4" fill="#F2F4F7"/>
<g filter="url(#filter1_b_289_14595)">
<rect x="52" y="62" width="48" height="48" rx="24" fill="#344054" fill-opacity="0.4"/>
<g clip-path="url(#clip0_289_14595)">
<path d="M80 90L76 86M76 86L72 90M76 86V95M84.39 92.39C85.3653 91.8583 86.1358 91.0169 86.5799 89.9986C87.0239 88.9804 87.1162 87.8432 86.8422 86.7667C86.5682 85.6901 85.9435 84.7355 85.0667 84.0534C84.1899 83.3714 83.1109 83.0007 82 83H80.74C80.4373 81.8292 79.8732 80.7423 79.0899 79.821C78.3067 78.8996 77.3248 78.1678 76.2181 77.6806C75.1114 77.1933 73.9085 76.9633 72.7001 77.0079C71.4917 77.0524 70.3091 77.3703 69.2412 77.9376C68.1733 78.505 67.2479 79.3071 66.5346 80.2836C65.8213 81.26 65.3387 82.3855 65.123 83.5754C64.9073 84.7652 64.9641 85.9885 65.2892 87.1532C65.6143 88.318 66.1992 89.3938 67 90.3" stroke="white" stroke-width="2" stroke-linecap="round" stroke-linejoin="round"/>
</g>
</g>
<defs>
<filter id="filter0_dd_289_14595" x="0" y="16" width="152" height="104" filterUnits="userSpaceOnUse" color-interpolation-filters="sRGB">
<feFlood flood-opacity="0" result="BackgroundImageFix"/>
<feColorMatrix in="SourceAlpha" type="matrix" values="0 0 0 0 0 0 0 0 0 0 0 0 0 0 0 0 0 0 127 0" result="hardAlpha"/>
<feMorphology radius="4" operator="erode" in="SourceAlpha" result="effect1_dropShadow_289_14595"/>
<feOffset dy="8"/>
<feGaussianBlur stdDeviation="4"/>
<feColorMatrix type="matrix" values="0 0 0 0 0.0627451 0 0 0 0 0.0941176 0 0 0 0 0.156863 0 0 0 0.03 0"/>
<feBlend mode="normal" in2="BackgroundImageFix" result="effect1_dropShadow_289_14595"/>
<feColorMatrix in="SourceAlpha" type="matrix" values="0 0 0 0 0 0 0 0 0 0 0 0 0 0 0 0 0 0 127 0" result="hardAlpha"/>
<feMorphology radius="4" operator="erode" in="SourceAlpha" result="effect2_dropShadow_289_14595"/>
<feOffset dy="20"/>
<feGaussianBlur stdDeviation="12"/>
<feColorMatrix type="matrix" values="0 0 0 0 0.0627451 0 0 0 0 0.0941176 0 0 0 0 0.156863 0 0 0 0.08 0"/>
<feBlend mode="normal" in2="effect1_dropShadow_289_14595" result="effect2_dropShadow_289_14595"/>
<feBlend mode="normal" in="SourceGraphic" in2="effect2_dropShadow_289_14595" result="shape"/>
</filter>
<filter id="filter1_b_289_14595" x="44" y="54" width="64" height="64" filterUnits="userSpaceOnUse" color-interpolation-filters="sRGB">
<feFlood flood-opacity="0" result="BackgroundImageFix"/>
<feGaussianBlur in="BackgroundImageFix" stdDeviation="4"/>
<feComposite in2="SourceAlpha" operator="in" result="effect1_backgroundBlur_289_14595"/>
<feBlend mode="normal" in="SourceGraphic" in2="effect1_backgroundBlur_289_14595" result="shape"/>
</filter>
<linearGradient id="paint0_linear_289_14595" x1="25.9429" y1="37.4857" x2="71.2" y2="79.9999" gradientUnits="userSpaceOnUse">
<stop stop-color="#D0D5DD"/>
<stop offset="0.350715" stop-color="white" stop-opacity="0"/>
</linearGradient>
<linearGradient id="paint1_linear_289_14595" x1="53.0286" y1="26.8571" x2="109.6" y2="80" gradientUnits="userSpaceOnUse">
<stop stop-color="#D0D5DD"/>
<stop offset="0.350715" stop-color="white" stop-opacity="0"/>
</linearGradient>
<linearGradient id="paint2_linear_289_14595" x1="92.4" y1="42.8" x2="132" y2="80" gradientUnits="userSpaceOnUse">
<stop stop-color="#D0D5DD"/>
<stop offset="0.350715" stop-color="white" stop-opacity="0"/>
</linearGradient>
<clipPath id="clip0_289_14595">
<rect width="24" height="24" fill="white" transform="translate(64 74)"/>
</clipPath>
</defs>
</svg>
